<svg version="1.2" baseProfile="tiny-ps" xmlns="http://www.w3.org/2000/svg" viewBox="0 0 478 70" width="478" height="70">
	<title>logo_new-svg</title>
	<style>
		tspan { white-space:pre }
		.shp0 { fill: #c12126 } 
		.shp1 { fill: #ffffff } 
	</style>
	<g id="Layer">
		<g id="Layer">
			<path id="Layer" class="shp0" d="M163 60.9L139 60.9C138.95 60.89 138.9 60.87 138.85 60.83C138.81 60.8 138.77 60.76 138.74 60.71C138.71 60.67 138.7 60.62 138.69 60.56C138.68 60.51 138.69 60.45 138.7 60.4L142.7 49.2C142.8 49 142.9 48.9 143.1 48.9L158.6 48.9C158.9 48.9 159 48.7 159 48.4L148.9 19.6C148.77 19.3 148.55 19.05 148.27 18.87C148 18.69 147.68 18.6 147.35 18.6C147.02 18.6 146.7 18.69 146.43 18.87C146.15 19.05 145.93 19.3 145.8 19.6L128.3 69.7C128.28 69.75 128.25 69.79 128.22 69.83C128.18 69.87 128.14 69.9 128.1 69.93C128.05 69.96 128.01 69.98 127.95 69.99C127.9 70 127.85 70 127.8 70L113.1 70C113.03 70.01 112.95 70 112.88 69.97C112.81 69.94 112.75 69.89 112.71 69.83C112.67 69.76 112.65 69.69 112.64 69.61C112.64 69.54 112.66 69.46 112.7 69.4L131.6 12.5C134.6 4.4 141.1 0.4 147.4 0.3C149.22 0.34 151.02 0.65 152.75 1.22C154.47 1.79 156.1 2.62 157.59 3.67C159.07 4.73 160.38 6 161.49 7.45C162.59 8.89 163.47 10.49 164.1 12.2L182.1 69.5C182.2 69.8 182 70 181.7 70L166.9 70C166.85 70 166.8 70 166.75 69.99C166.69 69.98 166.65 69.96 166.6 69.93C166.56 69.9 166.52 69.87 166.48 69.83C166.45 69.79 166.42 69.75 166.4 69.7L163.4 61.2C163.3 61 163.2 60.9 163 60.9Z" />
			<path id="Layer" class="shp0" d="M303.8 60.9L280.1 60.9C280.01 60.91 279.93 60.89 279.85 60.86C279.77 60.82 279.7 60.76 279.65 60.69C279.6 60.62 279.57 60.54 279.56 60.45C279.55 60.37 279.56 60.28 279.6 60.2L283.6 49.2C283.61 49.16 283.63 49.11 283.65 49.08C283.68 49.04 283.71 49.01 283.75 48.98C283.78 48.95 283.82 48.93 283.87 48.92C283.91 48.9 283.95 48.9 284 48.9L299.3 48.9C299.37 48.9 299.45 48.89 299.52 48.86C299.59 48.82 299.65 48.78 299.69 48.72C299.74 48.66 299.78 48.59 299.79 48.52C299.81 48.45 299.82 48.37 299.8 48.3L289.8 19.6C289.67 19.3 289.45 19.05 289.17 18.87C288.9 18.69 288.58 18.6 288.25 18.6C287.92 18.6 287.6 18.69 287.33 18.87C287.05 19.05 286.83 19.3 286.7 19.6L269.2 69.7C269.18 69.75 269.15 69.79 269.12 69.83C269.08 69.87 269.04 69.9 269 69.93C268.95 69.96 268.91 69.98 268.85 69.99C268.8 70 268.75 70 268.7 70L253.8 70C253.74 70.02 253.67 70.02 253.6 69.99C253.54 69.97 253.49 69.93 253.45 69.87C253.42 69.81 253.4 69.74 253.41 69.68C253.42 69.61 253.45 69.55 253.5 69.5L272.4 12.5C275.4 4.4 282 0.4 288.2 0.3C290.03 0.33 291.83 0.64 293.57 1.21C295.3 1.78 296.94 2.61 298.43 3.66C299.92 4.72 301.25 5.99 302.36 7.44C303.47 8.88 304.36 10.49 305 12.2L322.9 69.4C322.94 69.46 322.96 69.54 322.96 69.61C322.95 69.69 322.93 69.76 322.89 69.83C322.85 69.89 322.79 69.94 322.72 69.97C322.65 70 322.57 70.01 322.5 70L307.7 70C307.5 70 307.4 69.9 307.3 69.7L304.3 61.2C304.28 61.15 304.25 61.11 304.22 61.07C304.18 61.03 304.14 61 304.1 60.97C304.05 60.94 304.01 60.92 303.95 60.91C303.9 60.9 303.85 60.9 303.8 60.9Z" />
			<path id="Layer" class="shp0" d="M201.3 0.3C206.4 0.3 211 3.6 214.2 9.5C214.6 10.5 215.3 11.7 215.8 12.9L232.3 50.8C232.42 51.11 232.65 51.37 232.95 51.52C233.24 51.68 233.58 51.73 233.91 51.65C234.23 51.58 234.52 51.4 234.72 51.13C234.92 50.86 235.02 50.53 235 50.2L235 0.8C235.01 0.74 235.03 0.68 235.06 0.62C235.09 0.56 235.12 0.51 235.17 0.47C235.21 0.42 235.26 0.39 235.32 0.36C235.38 0.33 235.44 0.31 235.5 0.3L248.8 0.3C248.87 0.3 248.93 0.31 248.99 0.34C249.05 0.36 249.11 0.4 249.15 0.45C249.2 0.49 249.24 0.55 249.26 0.61C249.29 0.67 249.3 0.73 249.3 0.8L249.3 58.3C249.32 59.31 249.21 60.31 248.98 61.29C248.75 62.27 248.39 63.21 247.92 64.1C247.45 64.99 246.87 65.81 246.19 66.55C245.51 67.3 244.74 67.95 243.9 68.5C241.3 70.3 237.4 70 234.4 70C229.3 70 225.2 67.5 222.1 61.6L220.5 58.3L204.6 20.8C204.46 20.41 204.19 20.08 203.83 19.88C203.47 19.67 203.05 19.61 202.64 19.69C202.24 19.78 201.88 20.01 201.63 20.34C201.38 20.68 201.27 21.09 201.3 21.5L201.3 69.5C201.29 69.57 201.26 69.64 201.23 69.7C201.19 69.76 201.15 69.82 201.09 69.86C201.04 69.91 200.98 69.94 200.91 69.97C200.84 69.99 200.77 70 200.7 70L187.2 70C187.13 70 187.07 69.99 187.01 69.96C186.95 69.94 186.89 69.9 186.85 69.85C186.8 69.81 186.76 69.75 186.74 69.69C186.71 69.63 186.7 69.57 186.7 69.5L186.7 12.9C186.71 11.89 186.85 10.89 187.1 9.92C187.35 8.95 187.72 8.01 188.2 7.12C188.67 6.24 189.26 5.42 189.93 4.67C190.61 3.92 191.37 3.26 192.2 2.7C192.88 2.29 193.59 1.94 194.33 1.63C195.06 1.32 195.81 1.07 196.58 0.87C197.35 0.66 198.13 0.51 198.92 0.42C199.71 0.32 200.51 0.28 201.3 0.3L201.3 0.3Z" />
			<path id="Layer" class="shp0" d="M347 70L334 70C333.93 70 333.87 69.99 333.81 69.96C333.75 69.94 333.69 69.9 333.65 69.85C333.6 69.81 333.56 69.75 333.54 69.69C333.51 69.63 333.5 69.57 333.5 69.5C333.5 50.9 333.5 32.3 333.6 13.7C333.6 13.63 333.59 13.57 333.56 13.51C333.54 13.45 333.5 13.39 333.45 13.35C333.41 13.3 333.35 13.26 333.29 13.24C333.23 13.21 333.17 13.2 333.1 13.2L313.6 13.2C313.4 13.2 313.2 13.1 313.2 12.9L313.2 0.7C313.2 0.65 313.21 0.6 313.23 0.55C313.25 0.5 313.28 0.45 313.32 0.42C313.35 0.38 313.4 0.35 313.45 0.33C313.5 0.31 313.55 0.3 313.6 0.3L367.8 0.3C367.85 0.3 367.9 0.31 367.95 0.33C368 0.35 368.05 0.38 368.08 0.42C368.12 0.45 368.15 0.5 368.17 0.55C368.19 0.6 368.2 0.65 368.2 0.7L368.2 12.9C368.2 13.1 368 13.2 367.8 13.2L347.9 13.2C347.84 13.21 347.79 13.23 347.74 13.26C347.69 13.29 347.65 13.33 347.61 13.38C347.57 13.42 347.55 13.47 347.53 13.53C347.51 13.58 347.5 13.64 347.5 13.7L347.5 69.5C347.5 69.57 347.49 69.63 347.46 69.69C347.44 69.75 347.4 69.81 347.35 69.85C347.31 69.9 347.25 69.94 347.19 69.96C347.13 69.99 347.07 70 347 70Z" />
			<path id="Layer" fill-rule="evenodd" class="shp0" d="M395.1 70C393.41 70.03 391.73 69.87 390.08 69.54C388.42 69.22 386.81 68.71 385.26 68.04C383.71 67.37 382.24 66.54 380.87 65.56C379.5 64.57 378.23 63.45 377.1 62.2C375.96 61 374.93 59.7 374.04 58.31C373.15 56.91 372.39 55.44 371.78 53.9C371.18 52.36 370.72 50.76 370.42 49.14C370.12 47.51 369.98 45.85 370 44.2L370 26.2C369.96 24.49 370.1 22.78 370.41 21.09C370.72 19.41 371.2 17.76 371.84 16.18C372.48 14.59 373.29 13.07 374.24 11.65C375.19 10.23 376.28 8.9 377.5 7.7C378.64 6.52 379.89 5.47 381.24 4.54C382.59 3.62 384.03 2.83 385.54 2.2C387.05 1.56 388.62 1.08 390.23 0.77C391.83 0.45 393.46 0.29 395.1 0.3L403.8 0.3C405.49 0.28 407.18 0.44 408.83 0.78C410.49 1.12 412.1 1.63 413.65 2.31C415.2 2.99 416.67 3.83 418.04 4.82C419.41 5.81 420.67 6.94 421.8 8.2C422.95 9.39 423.98 10.69 424.87 12.09C425.77 13.48 426.52 14.96 427.13 16.5C427.74 18.04 428.19 19.63 428.49 21.26C428.79 22.89 428.92 24.54 428.9 26.2L428.9 44.2C428.93 45.91 428.79 47.62 428.48 49.3C428.17 50.99 427.69 52.63 427.04 54.22C426.4 55.8 425.6 57.32 424.65 58.74C423.7 60.17 422.61 61.49 421.4 62.7C420.26 63.87 419 64.92 417.65 65.84C416.3 66.75 414.86 67.53 413.35 68.16C411.84 68.78 410.27 69.25 408.67 69.56C407.06 69.87 405.43 70.02 403.8 70L395.1 70ZM395.6 58.8L403.4 58.8C406.9 58.8 409.8 56.9 411.9 53.1C412.28 52.44 412.62 51.76 412.91 51.06C413.2 50.36 413.44 49.64 413.63 48.9C413.83 48.17 413.97 47.42 414.07 46.67C414.16 45.92 414.21 45.16 414.2 44.4L414.2 25.9C414.25 24.84 414.18 23.79 414.01 22.75C413.84 21.7 413.57 20.68 413.19 19.69C412.81 18.71 412.34 17.76 411.77 16.87C411.2 15.98 410.54 15.16 409.8 14.4C409.39 13.96 408.94 13.56 408.45 13.21C407.97 12.87 407.44 12.57 406.89 12.33C406.34 12.09 405.77 11.91 405.18 11.78C404.6 11.66 404 11.6 403.4 11.6L395.6 11.6C392 11.6 389.2 13.4 387 17.1C386.62 17.77 386.29 18.46 386 19.17C385.71 19.88 385.47 20.61 385.28 21.35C385.08 22.09 384.94 22.85 384.84 23.61C384.75 24.37 384.7 25.13 384.7 25.9L384.7 44.4C384.7 49.2 386.2 53 389 55.8C389.42 56.26 389.88 56.68 390.39 57.04C390.89 57.41 391.43 57.72 391.99 57.98C392.56 58.23 393.15 58.43 393.75 58.57C394.36 58.71 394.98 58.79 395.6 58.8Z" />
			<path id="Layer" class="shp0" d="M450.9 58.1L477.4 58.1C477.46 58.1 477.52 58.11 477.57 58.13C477.63 58.15 477.68 58.17 477.72 58.21C477.77 58.25 477.81 58.29 477.84 58.34C477.87 58.39 477.89 58.44 477.9 58.5L477.9 69.6C477.9 69.65 477.89 69.7 477.87 69.75C477.85 69.8 477.82 69.85 477.78 69.88C477.75 69.92 477.7 69.95 477.65 69.97C477.6 69.99 477.55 70 477.5 70L448.2 70C447.18 70.04 446.16 69.95 445.16 69.74C444.16 69.53 443.19 69.21 442.27 68.76C441.35 68.32 440.49 67.77 439.7 67.12C438.91 66.47 438.21 65.72 437.6 64.9C437.19 64.41 436.83 63.89 436.52 63.35C436.2 62.8 435.94 62.22 435.72 61.62C435.51 61.03 435.35 60.41 435.25 59.79C435.14 59.17 435.09 58.53 435.1 57.9L435.1 1.7C435.1 1.63 435.11 1.57 435.14 1.51C435.16 1.45 435.2 1.39 435.25 1.35C435.29 1.3 435.35 1.26 435.41 1.24C435.47 1.21 435.53 1.2 435.6 1.2L449.7 1.2C449.9 1.2 450.1 1.5 450.1 1.7L450.1 57.3C450.1 57.41 450.12 57.51 450.16 57.61C450.2 57.7 450.26 57.79 450.33 57.87C450.41 57.94 450.5 58 450.59 58.04C450.69 58.08 450.79 58.1 450.9 58.1Z" />
		</g>
		<g id="Layer">
			<path id="Layer" fill-rule="evenodd" class="shp0" d="M117.9 31.5C117.99 31.58 118.05 31.67 118.1 31.77C118.15 31.87 118.17 31.99 118.17 32.1C118.17 32.21 118.15 32.33 118.1 32.43C118.05 32.53 117.99 32.62 117.9 32.7L77 32.7L76.5 33.3C70.8 39.7 60.9 40.7 56.5 40.9L55.7 40.9L36.7 69.8C36.5 70.3 36.1 70.3 35.8 70.2C35.5 70.1 35.5 69.6 35.8 69.2L54.4 40.8C54.2 40.8 54 40.79 53.79 40.78C53.59 40.77 53.39 40.75 53.19 40.72C52.99 40.7 52.79 40.67 52.59 40.63C52.39 40.59 52.2 40.55 52 40.5C43 38.8 43 35.2 43.8 33.2L44.1 32.7L0.8 32.7C0.3 32.7 0 32.4 0 32.1C0 31.8 0.3 31.5 0.8 31.5L44.9 31.5L45.2 31.3C53.9 23.5 65.2 24 65.2 24L65.5 24L81 0.3C81.05 0.23 81.11 0.17 81.18 0.13C81.25 0.08 81.33 0.05 81.41 0.03C81.49 0.01 81.58 0.01 81.66 0.02C81.75 0.03 81.83 0.06 81.9 0.1C81.96 0.15 82 0.21 82.04 0.27C82.07 0.34 82.1 0.41 82.1 0.48C82.11 0.55 82.11 0.63 82.09 0.7C82.07 0.77 82.04 0.84 82 0.9L66.8 24C78.3 24.4 78.6 28.7 77.8 31.1C77.8 31.2 77.7 31.4 77.7 31.5L117.9 31.5ZM65.7 25.7L64.6 27.3C71.3 27.7 71.8 30.1 71.5 31.5L74.4 31.5C76.2 27.2 68.7 25.7 65.7 25.7ZM48.5 31.5L51.2 31.5C55.7 27.6 63 27.3 63 27.3L63.3 27.3L64.4 25.7C62.7 25.6 54.2 25.8 48.5 31.5ZM53.2 38.7C53.4 38.75 53.59 38.79 53.79 38.83C53.99 38.87 54.19 38.9 54.39 38.92C54.59 38.95 54.79 38.97 54.99 38.98C55.2 38.99 55.4 39 55.6 39L56.8 37.2L56.4 37.2C49.4 36.4 49.5 34.1 50.3 32.7L47.5 32.7C44.9 36.4 50.1 38.1 53.2 38.7ZM73.7 32.7L71.1 32.7C70.8 33 66.8 37.1 58 37.3L57 39L57.1 39C60.9 38.8 70 37.8 73.7 32.8L73.7 32.7Z" />
			<path id="Layer" fill-rule="evenodd" class="shp0" d="M46.78 27.32C46.64 27.58 46.48 27.82 46.29 28.05C46.1 28.27 45.89 28.47 45.65 28.65C45.42 28.83 45.17 28.98 44.9 29.1C43.6 29.8 41.9 30.4 35 30.7L32.3 30.7C25.9 30.8 14.7 30.7 10.4 30.7L9.7 30.5C9.5 30.4 9.2 30.3 9.2 29.9C9.2 29.5 9.6 29 10.4 28.9C11.31 28.79 12.23 28.7 13.14 28.63C14.06 28.56 14.97 28.51 15.89 28.49C16.81 28.46 17.73 28.46 18.65 28.48C19.57 28.5 20.48 28.54 21.4 28.6C21.4 28.6 28.2 22.7 35.6 20.2L33.6 17.4C33.6 17.4 32.8 15 35.8 16.1C36.77 16.65 37.71 17.23 38.64 17.83C39.57 18.44 40.48 19.08 41.36 19.75C42.25 20.42 43.11 21.12 43.95 21.84C44.79 22.57 45.61 23.32 46.4 24.1C46.56 24.25 46.7 24.42 46.82 24.6C46.94 24.79 47.03 24.99 47.09 25.2C47.15 25.41 47.18 25.63 47.18 25.85C47.19 26.07 47.16 26.29 47.1 26.5C47.02 26.78 46.92 27.06 46.78 27.32ZM40.4 25.6C40.15 25.25 39.89 24.9 39.62 24.57C39.35 24.23 39.07 23.9 38.77 23.59C38.48 23.27 38.18 22.96 37.87 22.66C37.55 22.36 37.23 22.08 36.9 21.8C35.92 22.17 34.96 22.58 34.01 23.03C33.06 23.48 32.14 23.96 31.23 24.49C30.33 25.02 29.45 25.58 28.59 26.19C27.73 26.79 26.9 27.43 26.1 28.1L38.5 27.6C38.5 27.6 41.7 27.6 40.4 25.6Z" />
			<path id="Layer" fill-rule="evenodd" class="shp0" d="M73.1 8.1C73.18 8.18 73.25 8.28 73.3 8.39C73.35 8.5 73.38 8.61 73.39 8.73C73.4 8.85 73.39 8.97 73.36 9.08C73.32 9.2 73.27 9.3 73.2 9.4C73.2 9.4 71.8 12.9 66 19.9C65.62 20.36 65.2 20.79 64.75 21.19C64.3 21.58 63.82 21.94 63.31 22.25C62.8 22.57 62.27 22.84 61.71 23.06C61.16 23.29 60.58 23.47 60 23.6C59.62 23.68 59.24 23.75 58.86 23.8C58.48 23.84 58.09 23.87 57.71 23.88C57.32 23.89 56.93 23.88 56.55 23.85C56.16 23.82 55.78 23.77 55.4 23.7C54.08 23.25 52.8 22.71 51.55 22.09C50.31 21.47 49.1 20.77 47.95 20C46.79 19.22 45.69 18.37 44.64 17.45C43.6 16.53 42.62 15.55 41.7 14.5C41.5 14 41.6 13.8 41.6 13.8C41.73 13.6 41.83 13.5 41.9 13.5C42.03 13.45 42.16 13.41 42.29 13.39C42.43 13.36 42.56 13.35 42.7 13.35C42.84 13.35 42.97 13.36 43.11 13.39C43.24 13.41 43.37 13.45 43.5 13.5C43.95 13.65 44.39 13.82 44.82 14C45.26 14.17 45.69 14.36 46.11 14.56C46.54 14.76 46.96 14.97 47.38 15.2C47.79 15.42 48.2 15.65 48.6 15.9C48.6 15.9 60.4 12.5 67.1 13C67.44 12.59 67.78 12.19 68.14 11.79C68.49 11.39 68.85 11 69.22 10.62C69.58 10.24 69.96 9.86 70.34 9.49C70.72 9.12 71.11 8.76 71.5 8.4C72.1 7.9 72.7 7.7 73.1 8.1ZM65.5 14.8C64.31 14.86 63.13 14.95 61.95 15.08C60.77 15.21 59.6 15.38 58.43 15.58C57.26 15.78 56.09 16.01 54.94 16.28C53.78 16.56 52.64 16.86 51.5 17.2C51.5 17.2 55.3 20.6 59.3 20.3C63.2 20 66.69 14.74 65.5 14.8Z" />
			<path id="Layer" fill-rule="evenodd" class="shp0" d="M104.5 13.5C104.53 13.54 104.55 13.57 104.57 13.62C104.58 13.66 104.59 13.7 104.59 13.75C104.59 13.8 104.58 13.84 104.57 13.88C104.55 13.93 104.53 13.96 104.5 14C104.48 14.03 104.46 14.06 104.44 14.09C104.42 14.12 104.4 14.15 104.37 14.17C104.35 14.2 104.32 14.22 104.29 14.24C104.26 14.26 104.23 14.28 104.2 14.3C94.4 19.5 82 22.4 78.9 23.2L77.3 23.4C73.8 23.5 72.4 22.7 71.8 22C71.71 21.88 71.63 21.75 71.58 21.61C71.53 21.47 71.49 21.32 71.49 21.17C71.48 21.01 71.49 20.86 71.53 20.72C71.56 20.57 71.62 20.43 71.7 20.3C73.4 17.1 75.2 14.3 76.6 12.2L79 8.6C79.06 8.54 79.12 8.48 79.19 8.42C79.26 8.37 79.34 8.32 79.41 8.28C79.49 8.24 79.57 8.2 79.65 8.17C79.73 8.14 79.81 8.12 79.9 8.1C80 8.09 80.09 8.08 80.19 8.09C80.29 8.09 80.39 8.11 80.48 8.13C80.58 8.16 80.67 8.19 80.76 8.24C80.84 8.28 80.92 8.34 81 8.4C81.06 8.47 81.11 8.54 81.16 8.62C81.2 8.7 81.24 8.78 81.26 8.87C81.29 8.95 81.31 9.04 81.31 9.13C81.32 9.22 81.31 9.31 81.3 9.4C81.28 9.69 81.25 9.98 81.19 10.27C81.14 10.56 81.06 10.84 80.97 11.12C80.88 11.4 80.76 11.67 80.64 11.94C80.51 12.2 80.36 12.46 80.2 12.7C91 13.8 93.79 16.2 94.5 15.9C95.21 15.6 95.92 15.32 96.64 15.06C97.36 14.8 98.09 14.56 98.83 14.35C99.56 14.13 100.3 13.93 101.05 13.76C101.79 13.58 102.54 13.43 103.3 13.3C103.9 13.1 104.4 13.2 104.5 13.5ZM90.6 17.1C89.71 16.76 88.81 16.46 87.9 16.19C86.99 15.93 86.07 15.7 85.14 15.5C84.21 15.31 83.28 15.16 82.34 15.04C81.39 14.92 80.45 14.84 79.5 14.8C79.5 14.8 76.8 19.5 78.2 20C79.6 20.6 85.4 19.5 90.6 17.1Z" />
			<path id="Layer" fill-rule="evenodd" class="shp0" d="M115.2 29.5C115.3 29.7 115.2 29.8 115.2 29.9C115.15 29.99 115.09 30.08 115.02 30.15C114.95 30.23 114.87 30.29 114.79 30.34C114.7 30.4 114.6 30.44 114.5 30.46C114.4 30.49 114.3 30.5 114.2 30.5C114.2 30.5 95 30.8 85.1 30.6C85.1 30.6 81.2 29.6 81.2 27.8C81.2 26 84.4 24.7 86 24L88.5 23.1C93.1 21.2 107.3 15.9 107.3 15.9C107.3 15.9 109.9 15.3 108.1 17.1C106.3 18.9 101.9 20.2 101.9 20.2C101.9 20.2 105.2 21.6 105.2 28.6C105.95 28.56 106.7 28.53 107.45 28.52C108.2 28.51 108.95 28.51 109.7 28.53C110.45 28.54 111.2 28.57 111.95 28.62C112.7 28.67 113.45 28.73 114.2 28.8C114.8 28.8 115.1 29.3 115.2 29.5ZM101.2 28.4C101.2 27.79 101.14 27.18 101.02 26.58C100.9 25.99 100.72 25.4 100.49 24.84C100.26 24.27 99.98 23.73 99.64 23.22C99.31 22.71 98.93 22.24 98.5 21.8C98.5 21.8 88.9 25.3 88.9 27C88.9 28.7 101.2 28.4 101.2 28.4Z" />
			<path id="Layer" fill-rule="evenodd" class="shp0" d="M113.3 34.6L113.3 34.9C113.19 35.03 113.07 35.16 112.94 35.26C112.8 35.37 112.66 35.45 112.5 35.52C112.34 35.59 112.18 35.64 112.01 35.67C111.84 35.7 111.67 35.71 111.5 35.7C110.74 35.76 109.97 35.81 109.2 35.84C108.44 35.87 107.67 35.89 106.9 35.9C106.13 35.91 105.37 35.91 104.6 35.89C103.83 35.87 103.07 35.84 102.3 35.8C102.3 35.8 99 40.3 90 45.7C90.39 45.95 90.76 46.22 91.13 46.51C91.49 46.8 91.83 47.11 92.16 47.44C92.49 47.77 92.8 48.11 93.09 48.47C93.38 48.84 93.65 49.21 93.9 49.6C93.97 49.68 94.04 49.77 94.09 49.86C94.14 49.96 94.18 50.06 94.2 50.16C94.23 50.27 94.24 50.37 94.24 50.48C94.24 50.59 94.23 50.7 94.2 50.8C94.1 51.4 93.6 51.6 93.6 51.7C93.44 51.78 93.26 51.84 93.08 51.88C92.9 51.91 92.72 51.93 92.54 51.92C92.35 51.91 92.17 51.88 92 51.82C91.82 51.77 91.66 51.69 91.5 51.6C91.5 51.6 85.8 48.7 76 40.2C75.87 40.07 75.75 39.93 75.66 39.78C75.56 39.62 75.49 39.45 75.43 39.28C75.38 39.11 75.35 38.92 75.35 38.74C75.34 38.56 75.36 38.38 75.4 38.2C75.7 37.2 76.7 35.9 79.8 34.8C86.6 32.3 111.5 33.8 111.5 33.8C112.4 33.8 113.1 34.1 113.3 34.6ZM97.6 35.9C97.6 35.9 85.2 35.6 83.3 37.6C81.4 39.6 88 43.8 88 43.8C88 43.8 95.5 39.5 97.6 35.9Z" />
			<path id="Layer" fill-rule="evenodd" class="shp0" d="M84.4 53.5C84.48 53.56 84.55 53.64 84.61 53.72C84.67 53.8 84.72 53.9 84.76 53.99C84.79 54.09 84.82 54.19 84.82 54.29C84.83 54.4 84.82 54.5 84.8 54.6L84.2 55.3C84.02 55.36 83.83 55.41 83.64 55.45C83.45 55.48 83.25 55.51 83.06 55.51C82.86 55.52 82.67 55.52 82.47 55.5C82.28 55.48 82.09 55.45 81.9 55.4C81.9 55.4 80.3 55.3 75.4 51.9C73.63 52.49 71.84 53.03 70.03 53.52C68.23 54.01 66.41 54.45 64.58 54.83C62.75 55.22 60.91 55.55 59.07 55.83C57.22 56.1 55.36 56.33 53.5 56.5C53.09 57.05 52.66 57.59 52.23 58.11C51.79 58.64 51.33 59.15 50.86 59.65C50.4 60.15 49.92 60.64 49.42 61.12C48.93 61.59 48.42 62.05 47.9 62.5C47.76 62.64 47.6 62.76 47.43 62.86C47.25 62.96 47.07 63.03 46.87 63.07C46.68 63.11 46.48 63.13 46.28 63.12C46.08 63.11 45.89 63.07 45.7 63C45.63 62.92 45.56 62.83 45.5 62.74C45.44 62.64 45.39 62.55 45.34 62.44C45.3 62.34 45.27 62.24 45.24 62.13C45.22 62.02 45.21 61.91 45.2 61.8C45.19 61.73 45.19 61.66 45.19 61.59C45.19 61.52 45.21 61.45 45.22 61.38C45.24 61.31 45.26 61.25 45.29 61.18C45.32 61.12 45.36 61.06 45.4 61C45.9 59.9 47.8 56.6 54.4 47C54.76 46.47 55.15 45.97 55.58 45.5C56.02 45.02 56.48 44.59 56.98 44.19C57.48 43.79 58.01 43.43 58.57 43.12C59.12 42.8 59.7 42.53 60.3 42.3C60.87 42.06 61.47 41.87 62.07 41.73C62.68 41.6 63.3 41.51 63.92 41.48C64.54 41.44 65.16 41.46 65.78 41.53C66.39 41.6 67 41.73 67.6 41.9C67.92 41.98 68.25 42.07 68.56 42.19C68.88 42.3 69.18 42.42 69.49 42.57C69.79 42.71 70.08 42.87 70.37 43.04C70.66 43.21 70.93 43.4 71.2 43.6C73.6 45.3 78.9 49.1 84.4 53.5ZM72.4 50.1C72.4 50.1 67 45.1 63.2 45.8C59.4 46.5 56 53.5 56 53.5C56 53.5 65.9 52.8 72.4 50.1Z" />
			<path id="Layer" fill-rule="evenodd" class="shp0" d="M48 48.2C47.65 48.82 47.28 49.44 46.91 50.05C46.54 50.67 46.16 51.27 45.76 51.87C45.37 52.47 44.97 53.07 44.56 53.66C44.15 54.24 43.73 54.83 43.3 55.4C42.84 56.03 42.37 56.65 41.88 57.27C41.4 57.88 40.9 58.48 40.39 59.07C39.89 59.67 39.37 60.25 38.83 60.82C38.3 61.39 37.76 61.95 37.2 62.5C36 63.6 35.3 63.2 35.1 63.1C34.97 63.01 34.85 62.9 34.75 62.77C34.65 62.65 34.57 62.5 34.52 62.35C34.46 62.2 34.43 62.04 34.43 61.88C34.43 61.71 34.45 61.55 34.5 61.4C34.63 60.95 34.78 60.51 34.93 60.08C35.09 59.64 35.26 59.21 35.45 58.78C35.63 58.36 35.83 57.94 36.04 57.52C36.24 57.11 36.47 56.7 36.7 56.3C35.3 56.19 33.91 56.01 32.54 55.76C31.16 55.51 29.8 55.19 28.45 54.79C27.11 54.4 25.79 53.93 24.49 53.4C23.2 52.87 21.93 52.27 20.7 51.6C19.85 51.93 19 52.24 18.14 52.54C17.29 52.84 16.42 53.12 15.56 53.38C14.69 53.65 13.82 53.9 12.94 54.14C12.06 54.37 11.18 54.6 10.3 54.8C9.4 55 8.7 55 8.6 54.6C8.5 54.2 9.6 53.3 9.6 53.3C9.6 53.3 28.9 44.9 41.1 41.8C41.31 41.73 41.52 41.67 41.74 41.61C41.95 41.56 42.17 41.51 42.38 41.47C42.6 41.43 42.82 41.39 43.04 41.36C43.26 41.33 43.48 41.31 43.7 41.3C44.2 41.3 47.4 41.2 48.6 42.7C49.5 43.8 49.4 45.9 48 48.2ZM41.1 45.7C39 44.7 24.81 49.65 25.8 50.1C26.79 50.55 27.79 50.96 28.81 51.33C29.83 51.69 30.87 52.02 31.91 52.31C32.96 52.59 34.02 52.83 35.08 53.03C36.15 53.23 37.22 53.39 38.3 53.5C38.3 53.5 43.2 46.7 41.1 45.7Z" />
			<path id="Layer" fill-rule="evenodd" class="shp0" d="M39.9 36.1C39.84 36.41 39.75 36.71 39.63 37C39.5 37.29 39.34 37.56 39.15 37.81C38.96 38.07 38.74 38.29 38.49 38.49C38.25 38.69 37.98 38.86 37.7 39L35.5 40.2L11.5 49.6C11.11 49.77 10.72 49.94 10.33 50.1C9.93 50.26 9.54 50.41 9.14 50.55C8.73 50.69 8.33 50.82 7.93 50.95C7.52 51.07 7.11 51.19 6.7 51.3C6.1 51.4 5.5 51.1 5.4 51.1C5.3 51.1 5.3 51 5.2 50.7C5.1 50.4 5.4 50 5.9 49.7C6.62 49.3 7.35 48.92 8.08 48.56C8.82 48.19 9.56 47.84 10.32 47.51C11.07 47.18 11.82 46.86 12.59 46.56C13.35 46.25 14.12 45.97 14.9 45.7C14.51 44.94 14.23 44.12 14.05 43.29C13.87 42.45 13.81 41.59 13.85 40.73C13.89 39.88 14.05 39.03 14.31 38.22C14.57 37.4 14.94 36.62 15.4 35.9C14.72 35.89 14.05 35.88 13.37 35.85C12.69 35.82 12.02 35.78 11.34 35.73C10.66 35.68 9.99 35.62 9.32 35.55C8.64 35.48 7.97 35.39 7.3 35.3L6.4 35C6.4 34.9 6.2 34.7 6.2 34.4C6.25 34.3 6.31 34.21 6.39 34.13C6.47 34.05 6.56 33.98 6.66 33.93C6.75 33.87 6.86 33.84 6.97 33.81C7.08 33.79 7.19 33.79 7.3 33.8C7.3 33.8 17.2 33.3 36.7 33.8C36.7 33.8 39.9 33.9 39.9 36.1ZM31.6 37.3C31.6 35.1 19.64 35.54 19.3 36.1C18.96 36.66 18.68 37.27 18.49 37.9C18.29 38.53 18.17 39.19 18.14 39.85C18.1 40.51 18.15 41.17 18.28 41.82C18.41 42.47 18.62 43.1 18.9 43.7C18.9 43.7 31.6 39.5 31.6 37.3Z" />
		</g>
	</g>
	<g id="Layer">
		<path id="Layer" class="shp1" d="M29.7 103.1L29.7 80.2L46.2 80.2L46.2 82.9L32.7 82.9L32.7 89.9L45.4 89.9L45.4 92.6L32.7 92.6L32.7 100.4L46.8 100.4L46.8 103.1L29.7 103.1Z" />
		<path id="Layer" fill-rule="evenodd" class="shp1" d="M61.2 109.5L61.2 101.3C61.08 101.47 60.95 101.63 60.81 101.79C60.66 101.94 60.51 102.09 60.35 102.22C60.19 102.36 60.02 102.48 59.85 102.59C59.67 102.71 59.49 102.81 59.3 102.9C59.11 103 58.91 103.09 58.71 103.17C58.51 103.25 58.3 103.31 58.09 103.36C57.88 103.41 57.66 103.45 57.45 103.47C57.23 103.49 57.02 103.5 56.8 103.5C56.32 103.49 55.83 103.44 55.36 103.33C54.89 103.22 54.43 103.06 53.99 102.85C53.55 102.65 53.14 102.39 52.75 102.1C52.37 101.8 52.01 101.47 51.7 101.1C51.33 100.65 51.01 100.16 50.73 99.65C50.45 99.14 50.22 98.6 50.04 98.05C49.86 97.49 49.73 96.92 49.66 96.34C49.59 95.77 49.57 95.18 49.6 94.6C49.59 94.22 49.61 93.85 49.65 93.47C49.68 93.09 49.74 92.72 49.81 92.35C49.89 91.98 49.98 91.62 50.1 91.26C50.21 90.9 50.35 90.54 50.5 90.2C50.62 89.89 50.77 89.58 50.94 89.29C51.1 89 51.29 88.72 51.51 88.45C51.72 88.19 51.95 87.95 52.2 87.72C52.45 87.49 52.72 87.29 53 87.1C53.27 86.94 53.56 86.8 53.85 86.68C54.14 86.56 54.43 86.46 54.74 86.37C55.04 86.29 55.35 86.22 55.66 86.18C55.97 86.13 56.29 86.11 56.6 86.1C57.08 86.09 57.57 86.14 58.04 86.25C58.51 86.37 58.96 86.54 59.39 86.76C59.81 86.99 60.21 87.27 60.57 87.6C60.92 87.92 61.24 88.29 61.5 88.7L61.5 86.5L64 86.5L64 109.5L61.2 109.5ZM52.5 94.8C52.48 95.22 52.49 95.64 52.54 96.06C52.58 96.48 52.66 96.9 52.77 97.3C52.88 97.71 53.02 98.11 53.2 98.49C53.37 98.88 53.57 99.25 53.8 99.6C54 99.84 54.23 100.06 54.48 100.26C54.72 100.45 54.99 100.62 55.28 100.76C55.56 100.9 55.86 101 56.16 101.08C56.47 101.15 56.78 101.19 57.1 101.2C57.4 101.2 57.7 101.16 58 101.09C58.29 101.02 58.58 100.92 58.84 100.78C59.11 100.64 59.36 100.47 59.59 100.27C59.82 100.07 60.02 99.85 60.2 99.6C60.43 99.27 60.64 98.92 60.81 98.55C60.99 98.18 61.13 97.8 61.24 97.41C61.35 97.02 61.43 96.62 61.47 96.22C61.52 95.81 61.53 95.41 61.5 95C61.53 94.56 61.52 94.12 61.48 93.68C61.43 93.24 61.35 92.81 61.23 92.38C61.11 91.96 60.95 91.54 60.77 91.14C60.58 90.74 60.35 90.36 60.1 90C59.92 89.75 59.71 89.51 59.47 89.31C59.23 89.1 58.97 88.92 58.7 88.78C58.42 88.63 58.13 88.52 57.83 88.44C57.52 88.35 57.21 88.31 56.9 88.3C56.6 88.31 56.3 88.35 56.01 88.42C55.72 88.5 55.43 88.61 55.17 88.74C54.9 88.88 54.65 89.05 54.42 89.24C54.19 89.44 53.98 89.66 53.8 89.9C52.9 90.9 52.5 92.6 52.5 94.8Z" />
		<path id="Layer" class="shp1" d="M79.3 103.1L79.3 100.7C79.01 101.13 78.67 101.53 78.28 101.88C77.89 102.23 77.47 102.53 77 102.77C76.54 103.01 76.05 103.2 75.55 103.32C75.04 103.45 74.52 103.51 74 103.5C73.77 103.5 73.53 103.49 73.3 103.47C73.07 103.45 72.84 103.41 72.61 103.36C72.39 103.31 72.16 103.24 71.94 103.17C71.72 103.09 71.51 103 71.3 102.9C71.11 102.83 70.93 102.75 70.75 102.66C70.58 102.56 70.41 102.46 70.25 102.34C70.09 102.22 69.93 102.09 69.79 101.95C69.65 101.81 69.52 101.66 69.4 101.5C69.3 101.34 69.2 101.17 69.11 101.01C69.02 100.84 68.94 100.66 68.86 100.49C68.78 100.31 68.72 100.13 68.66 99.95C68.6 99.77 68.54 99.59 68.5 99.4C68.46 99.19 68.43 98.97 68.41 98.75C68.38 98.54 68.36 98.32 68.34 98.1C68.32 97.89 68.31 97.67 68.31 97.45C68.3 97.24 68.3 97.02 68.3 96.8L68.3 86.5L71.2 86.5L71.2 95.7C71.19 95.95 71.19 96.2 71.19 96.45C71.18 96.7 71.19 96.95 71.2 97.2C71.21 97.45 71.22 97.7 71.24 97.95C71.25 98.2 71.27 98.45 71.3 98.7C71.35 98.87 71.41 99.04 71.48 99.2C71.56 99.36 71.65 99.51 71.75 99.66C71.85 99.8 71.96 99.94 72.09 100.06C72.22 100.19 72.35 100.3 72.5 100.4C72.65 100.52 72.81 100.62 72.97 100.71C73.14 100.8 73.31 100.87 73.49 100.93C73.67 100.99 73.85 101.03 74.04 101.06C74.22 101.09 74.41 101.1 74.6 101.1C74.81 101.09 75.02 101.07 75.23 101.03C75.43 100.99 75.64 100.95 75.84 100.89C76.04 100.83 76.24 100.76 76.43 100.68C76.63 100.6 76.82 100.5 77 100.4C77.17 100.3 77.34 100.19 77.49 100.06C77.64 99.93 77.78 99.79 77.91 99.63C78.04 99.48 78.15 99.32 78.25 99.14C78.35 98.97 78.43 98.79 78.5 98.6C78.59 98.34 78.67 98.08 78.74 97.82C78.81 97.56 78.86 97.29 78.9 97.02C78.95 96.76 78.97 96.49 78.99 96.21C79.01 95.94 79.01 95.67 79 95.4L79 86.5L81.8 86.5L81.8 103.1L79.3 103.1Z" />
		<path id="Layer" class="shp1" d="M86.2 83.4L86.2 80.2L89 80.2L89 83.4L86.2 83.4ZM86.2 103.1L86.2 86.5L89 86.5L89 103.1L86.2 103.1Z" />
		<path id="Layer" fill-rule="evenodd" class="shp1" d="M93.3 109.5L93.3 86.5L95.9 86.5L95.9 88.7C96.03 88.51 96.16 88.32 96.31 88.14C96.46 87.96 96.62 87.79 96.79 87.63C96.96 87.47 97.13 87.32 97.32 87.18C97.51 87.04 97.7 86.92 97.9 86.8C98.11 86.68 98.33 86.57 98.55 86.48C98.78 86.38 99.01 86.31 99.25 86.25C99.49 86.19 99.73 86.15 99.97 86.12C100.21 86.1 100.46 86.09 100.7 86.1C101.03 86.1 101.37 86.12 101.7 86.17C102.03 86.21 102.36 86.28 102.68 86.38C103 86.47 103.31 86.58 103.62 86.72C103.92 86.86 104.22 87.02 104.5 87.2C104.77 87.39 105.02 87.61 105.26 87.84C105.5 88.07 105.72 88.31 105.92 88.58C106.13 88.84 106.31 89.11 106.47 89.4C106.64 89.69 106.78 89.99 106.9 90.3C107.04 90.65 107.17 91 107.28 91.36C107.38 91.72 107.47 92.09 107.54 92.46C107.6 92.83 107.65 93.2 107.68 93.57C107.71 93.95 107.71 94.32 107.7 94.7C107.71 95.09 107.69 95.49 107.66 95.88C107.62 96.27 107.56 96.66 107.49 97.05C107.41 97.43 107.32 97.81 107.2 98.19C107.09 98.57 106.95 98.94 106.8 99.3C106.54 99.92 106.19 100.49 105.76 101.01C105.33 101.52 104.83 101.97 104.28 102.34C103.72 102.71 103.11 103 102.47 103.2C101.83 103.39 101.17 103.5 100.5 103.5C100.28 103.5 100.07 103.49 99.85 103.47C99.64 103.45 99.42 103.41 99.21 103.36C99 103.31 98.79 103.25 98.59 103.17C98.39 103.09 98.19 103 98 102.9C97.82 102.81 97.64 102.71 97.47 102.6C97.3 102.49 97.13 102.38 96.97 102.25C96.81 102.12 96.66 101.99 96.51 101.85C96.37 101.71 96.23 101.56 96.1 101.4L96.1 109.5L93.3 109.5ZM97.2 99.6C97.37 99.85 97.57 100.08 97.8 100.28C98.03 100.48 98.28 100.65 98.55 100.79C98.82 100.93 99.1 101.03 99.4 101.1C99.69 101.17 100 101.2 100.3 101.2C100.61 101.19 100.91 101.15 101.21 101.08C101.51 101 101.8 100.9 102.08 100.76C102.35 100.62 102.61 100.45 102.85 100.26C103.09 100.06 103.31 99.84 103.5 99.6C103.75 99.25 103.98 98.88 104.17 98.49C104.35 98.1 104.51 97.69 104.63 97.27C104.75 96.86 104.83 96.43 104.88 96C104.92 95.57 104.93 95.13 104.9 94.7C104.92 94.28 104.91 93.86 104.87 93.44C104.83 93.02 104.75 92.6 104.64 92.2C104.53 91.79 104.38 91.39 104.21 91.01C104.04 90.62 103.83 90.25 103.6 89.9C103.41 89.66 103.19 89.44 102.95 89.24C102.71 89.05 102.45 88.88 102.18 88.74C101.9 88.6 101.61 88.5 101.31 88.42C101.01 88.35 100.71 88.31 100.4 88.3C100.09 88.31 99.79 88.36 99.5 88.44C99.2 88.53 98.92 88.64 98.65 88.79C98.38 88.94 98.13 89.11 97.91 89.32C97.68 89.52 97.48 89.75 97.3 90C96.3 91.1 95.9 92.8 95.9 94.9C95.9 97 96.3 98.6 97.2 99.6Z" />
		<path id="Layer" class="shp1" d="M111.1 103.1L111.1 86.5L113.7 86.5L113.7 88.8C113.97 88.38 114.29 88 114.65 87.67C115.01 87.33 115.42 87.04 115.85 86.81C116.29 86.57 116.75 86.39 117.23 86.27C117.71 86.16 118.21 86.1 118.7 86.1C118.96 86.09 119.22 86.11 119.48 86.14C119.75 86.17 120 86.22 120.26 86.29C120.51 86.36 120.76 86.44 121 86.54C121.24 86.65 121.48 86.76 121.7 86.9C121.9 87.02 122.08 87.15 122.26 87.3C122.43 87.45 122.59 87.62 122.74 87.8C122.88 87.98 123.01 88.17 123.12 88.37C123.23 88.57 123.33 88.78 123.4 89C123.66 88.56 123.98 88.16 124.35 87.8C124.72 87.45 125.13 87.14 125.57 86.88C126.02 86.63 126.49 86.44 126.99 86.3C127.48 86.17 127.99 86.1 128.5 86.1C128.85 86.08 129.19 86.1 129.54 86.15C129.88 86.2 130.22 86.29 130.54 86.41C130.87 86.53 131.18 86.68 131.48 86.86C131.77 87.05 132.05 87.26 132.3 87.5C132.54 87.79 132.75 88.1 132.93 88.43C133.11 88.76 133.26 89.11 133.37 89.47C133.48 89.83 133.56 90.2 133.6 90.57C133.63 90.95 133.64 91.33 133.6 91.7L133.6 103.1L130.8 103.1L130.8 92.6C130.82 92.4 130.82 92.2 130.82 92C130.82 91.79 130.81 91.59 130.8 91.39C130.78 91.19 130.75 90.99 130.72 90.79C130.69 90.59 130.65 90.4 130.6 90.2C130.55 90.08 130.5 89.95 130.43 89.84C130.37 89.72 130.29 89.61 130.2 89.51C130.12 89.41 130.03 89.32 129.92 89.23C129.82 89.14 129.71 89.07 129.6 89C129.47 88.93 129.34 88.87 129.2 88.82C129.06 88.76 128.92 88.72 128.78 88.69C128.63 88.65 128.49 88.63 128.34 88.61C128.19 88.6 128.05 88.59 127.9 88.6C127.63 88.58 127.37 88.6 127.1 88.64C126.84 88.68 126.58 88.75 126.33 88.84C126.08 88.94 125.84 89.06 125.62 89.2C125.4 89.34 125.19 89.51 125 89.7C124.78 89.96 124.58 90.24 124.42 90.54C124.25 90.84 124.12 91.15 124.01 91.48C123.91 91.8 123.84 92.14 123.8 92.48C123.77 92.82 123.77 93.16 123.8 93.5L123.8 103.1L121 103.1L121 92.3C121.02 92.06 121.02 91.81 121 91.57C120.98 91.32 120.94 91.08 120.88 90.84C120.82 90.6 120.74 90.37 120.65 90.15C120.55 89.92 120.43 89.71 120.3 89.5C120.17 89.34 120.02 89.2 119.85 89.07C119.69 88.95 119.51 88.85 119.31 88.77C119.12 88.69 118.92 88.64 118.72 88.61C118.51 88.58 118.31 88.58 118.1 88.6C117.91 88.6 117.71 88.61 117.52 88.63C117.33 88.65 117.14 88.69 116.96 88.74C116.77 88.79 116.59 88.85 116.41 88.93C116.23 89.01 116.06 89.1 115.9 89.2C115.73 89.3 115.56 89.41 115.41 89.54C115.26 89.67 115.12 89.81 114.99 89.97C114.86 90.12 114.75 90.28 114.65 90.46C114.55 90.63 114.47 90.81 114.4 91C114.32 91.28 114.25 91.57 114.19 91.86C114.14 92.15 114.09 92.44 114.06 92.73C114.02 93.03 114 93.32 113.99 93.62C113.98 93.91 113.99 94.21 114 94.5L114 103.1L111.1 103.1Z" />
		<path id="Layer" fill-rule="evenodd" class="shp1" d="M149.2 97.8L152.1 98.1C152 98.49 151.87 98.88 151.71 99.25C151.54 99.62 151.35 99.98 151.13 100.32C150.91 100.65 150.66 100.98 150.39 101.27C150.12 101.57 149.82 101.85 149.5 102.1C148.71 102.62 147.83 103.01 146.91 103.24C145.99 103.48 145.04 103.55 144.09 103.47C143.15 103.39 142.22 103.15 141.36 102.77C140.49 102.38 139.69 101.85 139 101.2C138.63 100.77 138.31 100.3 138.03 99.81C137.75 99.31 137.52 98.79 137.34 98.25C137.16 97.71 137.03 97.16 136.96 96.6C136.89 96.03 136.87 95.47 136.9 94.9C136.87 94.32 136.89 93.73 136.96 93.16C137.03 92.58 137.16 92.01 137.34 91.45C137.52 90.9 137.75 90.36 138.03 89.85C138.31 89.34 138.63 88.85 139 88.4C139.36 88.03 139.76 87.69 140.19 87.4C140.62 87.1 141.08 86.86 141.56 86.66C142.04 86.46 142.54 86.32 143.05 86.22C143.56 86.13 144.08 86.09 144.6 86.1C145.11 86.08 145.63 86.12 146.13 86.22C146.63 86.31 147.13 86.46 147.6 86.65C148.07 86.85 148.52 87.1 148.94 87.39C149.36 87.69 149.75 88.02 150.1 88.4C150.47 88.84 150.8 89.31 151.08 89.82C151.36 90.32 151.59 90.85 151.77 91.4C151.95 91.94 152.08 92.51 152.15 93.08C152.22 93.65 152.24 94.23 152.2 94.8L152.2 95.5L139.8 95.5C139.8 95.88 139.83 96.26 139.9 96.63C139.96 97.01 140.06 97.37 140.18 97.73C140.31 98.09 140.47 98.43 140.66 98.76C140.84 99.09 141.06 99.41 141.3 99.7C141.52 99.94 141.77 100.16 142.04 100.34C142.3 100.53 142.59 100.69 142.89 100.82C143.19 100.95 143.51 101.05 143.83 101.11C144.15 101.17 144.47 101.2 144.8 101.2C145.03 101.21 145.27 101.19 145.5 101.16C145.73 101.12 145.96 101.06 146.18 100.99C146.4 100.91 146.62 100.81 146.82 100.7C147.03 100.58 147.22 100.45 147.4 100.3C147.61 100.15 147.81 99.98 148 99.79C148.18 99.61 148.35 99.41 148.51 99.2C148.66 98.99 148.79 98.76 148.91 98.53C149.03 98.29 149.12 98.05 149.2 97.8ZM149.2 93.2C149.19 92.93 149.16 92.65 149.11 92.38C149.07 92.11 149 91.84 148.91 91.58C148.83 91.32 148.73 91.06 148.61 90.82C148.49 90.57 148.35 90.33 148.2 90.1C147.99 89.83 147.76 89.59 147.5 89.38C147.24 89.17 146.95 88.99 146.65 88.84C146.35 88.7 146.03 88.58 145.7 88.51C145.37 88.43 145.04 88.4 144.7 88.4C144.4 88.4 144.1 88.43 143.8 88.49C143.5 88.55 143.21 88.63 142.93 88.74C142.65 88.85 142.38 88.99 142.12 89.15C141.86 89.31 141.62 89.49 141.4 89.7C141.18 89.93 140.97 90.19 140.79 90.46C140.61 90.73 140.46 91.02 140.33 91.31C140.2 91.61 140.1 91.92 140.03 92.24C139.96 92.55 139.91 92.88 139.9 93.2L149.2 93.2Z" />
		<path id="Layer" class="shp1" d="M155.6 103.1L155.6 86.5L158.2 86.5L158.2 88.9C158.46 88.45 158.79 88.04 159.16 87.69C159.53 87.33 159.95 87.02 160.41 86.77C160.87 86.53 161.35 86.35 161.86 86.23C162.36 86.12 162.88 86.07 163.4 86.1C163.64 86.1 163.88 86.11 164.12 86.13C164.36 86.15 164.6 86.19 164.83 86.24C165.07 86.29 165.3 86.36 165.53 86.43C165.76 86.51 165.98 86.6 166.2 86.7C166.39 86.77 166.57 86.85 166.75 86.94C166.93 87.03 167.09 87.14 167.26 87.26C167.42 87.38 167.57 87.51 167.71 87.65C167.85 87.79 167.98 87.94 168.1 88.1C168.2 88.26 168.3 88.43 168.39 88.59C168.48 88.76 168.56 88.94 168.64 89.11C168.72 89.29 168.78 89.47 168.84 89.65C168.9 89.83 168.96 90.01 169 90.2C169.03 90.42 169.05 90.65 169.06 90.87C169.08 91.1 169.09 91.32 169.1 91.55C169.11 91.77 169.11 92 169.11 92.22C169.11 92.45 169.11 92.67 169.1 92.9L169.1 103.1L166.3 103.1L166.3 93C166.31 92.78 166.31 92.56 166.3 92.34C166.29 92.12 166.27 91.91 166.25 91.69C166.22 91.47 166.19 91.25 166.15 91.04C166.11 90.82 166.06 90.61 166 90.4C165.94 90.26 165.87 90.13 165.79 90C165.71 89.87 165.62 89.75 165.52 89.64C165.42 89.53 165.3 89.43 165.18 89.34C165.06 89.25 164.93 89.17 164.8 89.1C164.66 89.01 164.52 88.93 164.36 88.86C164.21 88.79 164.05 88.73 163.89 88.69C163.73 88.65 163.57 88.62 163.4 88.6C163.23 88.59 163.07 88.59 162.9 88.6C162.61 88.59 162.32 88.6 162.04 88.64C161.75 88.68 161.47 88.75 161.2 88.85C160.92 88.94 160.66 89.06 160.41 89.2C160.16 89.35 159.92 89.51 159.7 89.7C158.9 90.5 158.4 91.9 158.4 94L158.4 103.1L155.6 103.1Z" />
		<path id="Layer" class="shp1" d="M179.6 100.6L180 103.1L177.9 103.3C177.69 103.32 177.49 103.33 177.28 103.32C177.07 103.31 176.86 103.29 176.66 103.24C176.46 103.2 176.26 103.14 176.06 103.07C175.87 102.99 175.68 102.9 175.5 102.8C175.37 102.74 175.24 102.67 175.12 102.59C175 102.51 174.89 102.42 174.79 102.31C174.68 102.21 174.59 102.1 174.51 101.98C174.43 101.86 174.36 101.73 174.3 101.6C174.24 101.32 174.18 101.04 174.14 100.76C174.09 100.48 174.06 100.19 174.03 99.91C174.01 99.63 173.99 99.34 173.99 99.06C173.98 98.77 173.99 98.49 174 98.2L174 88.7L171.9 88.7L171.9 86.5L174 86.5L174 82.4L176.8 80.7L176.8 86.5L179.6 86.5L179.6 88.7L176.8 88.7L176.8 98.4C176.79 98.53 176.78 98.65 176.78 98.78C176.78 98.9 176.78 99.03 176.79 99.15C176.8 99.28 176.81 99.4 176.83 99.53C176.85 99.65 176.87 99.78 176.9 99.9C176.92 99.96 176.95 100.03 176.98 100.08C177.01 100.14 177.05 100.2 177.09 100.25C177.13 100.3 177.18 100.35 177.23 100.39C177.28 100.43 177.34 100.47 177.4 100.5L178.3 100.7L179.6 100.6Z" />
		<path id="Layer" class="shp1" d="M191.5 103.1L191.5 80.2L196.1 80.2L201.5 96.4L202.6 99.8C202.8 99 203.3 97.7 203.8 96.1L209.3 80.2L213.4 80.2L213.4 103.1L210.5 103.1L210.5 83.9L203.8 103.1L201.1 103.1L194.4 83.6L194.4 103.1L191.5 103.1Z" />
		<path id="Layer" fill-rule="evenodd" class="shp1" d="M228.7 101.1C228.48 101.29 228.25 101.48 228.02 101.65C227.78 101.82 227.53 101.99 227.28 102.14C227.03 102.29 226.77 102.43 226.51 102.56C226.24 102.68 225.97 102.8 225.7 102.9C225.46 103 225.21 103.09 224.95 103.17C224.7 103.24 224.44 103.31 224.18 103.36C223.92 103.41 223.66 103.45 223.39 103.47C223.13 103.49 222.86 103.5 222.6 103.5C222.22 103.52 221.84 103.5 221.47 103.45C221.1 103.4 220.73 103.31 220.37 103.19C220.01 103.07 219.66 102.92 219.33 102.74C219 102.56 218.69 102.34 218.4 102.1C218.16 101.89 217.95 101.65 217.77 101.39C217.58 101.13 217.43 100.85 217.31 100.56C217.19 100.27 217.1 99.96 217.05 99.65C217 99.33 216.98 99.02 217 98.7C216.99 98.51 216.99 98.32 217.01 98.13C217.03 97.94 217.06 97.75 217.1 97.57C217.14 97.38 217.2 97.2 217.26 97.02C217.33 96.84 217.41 96.67 217.5 96.5C217.59 96.34 217.69 96.18 217.8 96.03C217.91 95.89 218.03 95.74 218.15 95.61C218.28 95.47 218.41 95.35 218.56 95.23C218.7 95.11 218.85 95 219 94.9C219.15 94.8 219.31 94.7 219.47 94.61C219.63 94.52 219.79 94.43 219.96 94.36C220.13 94.28 220.3 94.22 220.47 94.16C220.65 94.1 220.82 94.04 221 94C221.21 93.94 221.41 93.89 221.62 93.84C221.82 93.79 222.03 93.75 222.24 93.71C222.45 93.66 222.66 93.63 222.87 93.59C223.08 93.56 223.29 93.53 223.5 93.5C223.92 93.46 224.34 93.42 224.76 93.36C225.18 93.31 225.6 93.24 226.02 93.17C226.44 93.09 226.85 93.01 227.27 92.91C227.68 92.82 228.09 92.71 228.5 92.6L228.5 91.8C228.53 91.58 228.53 91.36 228.51 91.15C228.49 90.93 228.44 90.72 228.38 90.51C228.31 90.3 228.21 90.1 228.1 89.92C227.99 89.73 227.85 89.56 227.7 89.4C227.47 89.24 227.23 89.09 226.97 88.97C226.72 88.85 226.45 88.75 226.18 88.67C225.91 88.59 225.63 88.54 225.35 88.51C225.07 88.48 224.78 88.48 224.5 88.5C224.25 88.48 224 88.48 223.75 88.5C223.5 88.52 223.25 88.55 223.01 88.6C222.76 88.65 222.52 88.72 222.29 88.8C222.05 88.89 221.82 88.99 221.6 89.1C221.42 89.26 221.26 89.44 221.11 89.63C220.95 89.82 220.82 90.03 220.7 90.24C220.58 90.45 220.48 90.67 220.4 90.9C220.31 91.13 220.25 91.36 220.2 91.6L217.4 91.2C217.46 90.95 217.53 90.7 217.61 90.45C217.69 90.21 217.79 89.97 217.9 89.73C218.01 89.5 218.13 89.27 218.26 89.04C218.4 88.82 218.54 88.61 218.7 88.4C218.86 88.2 219.04 88.02 219.23 87.84C219.41 87.67 219.61 87.51 219.83 87.37C220.04 87.22 220.26 87.1 220.49 86.98C220.72 86.87 220.96 86.78 221.2 86.7C221.5 86.59 221.8 86.5 222.1 86.42C222.4 86.34 222.71 86.28 223.02 86.23C223.33 86.18 223.64 86.14 223.96 86.12C224.27 86.1 224.59 86.09 224.9 86.1C225.2 86.1 225.49 86.1 225.79 86.12C226.08 86.14 226.38 86.17 226.67 86.21C226.96 86.25 227.25 86.31 227.54 86.37C227.83 86.44 228.12 86.51 228.4 86.6C228.58 86.67 228.76 86.75 228.93 86.84C229.1 86.93 229.27 87.02 229.43 87.13C229.59 87.24 229.74 87.36 229.89 87.49C230.03 87.62 230.17 87.76 230.3 87.9C230.42 88.03 230.53 88.17 230.62 88.32C230.72 88.47 230.81 88.63 230.88 88.79C230.96 88.95 231.02 89.11 231.08 89.28C231.13 89.45 231.17 89.62 231.2 89.8C231.24 90.01 231.27 90.23 231.3 90.45C231.32 90.66 231.35 90.88 231.36 91.1C231.38 91.31 231.39 91.53 231.4 91.75C231.4 91.96 231.4 92.18 231.4 92.4L231.4 96.1C231.4 98.8 231.4 100.4 231.5 101.1C231.54 101.27 231.59 101.44 231.64 101.61C231.69 101.78 231.75 101.95 231.81 102.12C231.86 102.28 231.93 102.45 231.99 102.61C232.06 102.78 232.13 102.94 232.2 103.1L229.3 103.1C229.22 102.94 229.15 102.78 229.09 102.62C229.03 102.46 228.97 102.29 228.92 102.12C228.87 101.96 228.83 101.79 228.79 101.62C228.75 101.45 228.72 101.27 228.7 101.1ZM228.5 94.8C228.13 94.92 227.75 95.04 227.37 95.14C226.99 95.25 226.61 95.34 226.23 95.43C225.84 95.51 225.46 95.58 225.07 95.64C224.68 95.71 224.29 95.76 223.9 95.8L221.5 96.4C221.38 96.44 221.27 96.5 221.16 96.56C221.04 96.62 220.94 96.69 220.84 96.76C220.73 96.84 220.64 96.92 220.55 97.01C220.46 97.1 220.38 97.2 220.3 97.3C220.25 97.4 220.21 97.5 220.17 97.61C220.14 97.72 220.1 97.82 220.08 97.93C220.05 98.04 220.03 98.15 220.02 98.26C220.01 98.38 220 98.49 220 98.6C219.98 98.78 219.99 98.96 220.02 99.13C220.05 99.31 220.09 99.48 220.16 99.65C220.23 99.81 220.32 99.97 220.43 100.11C220.54 100.26 220.66 100.39 220.8 100.5C220.98 100.64 221.16 100.76 221.36 100.87C221.56 100.97 221.76 101.06 221.98 101.13C222.19 101.2 222.41 101.25 222.63 101.27C222.85 101.3 223.08 101.31 223.3 101.3C223.55 101.3 223.8 101.28 224.05 101.25C224.3 101.22 224.55 101.18 224.79 101.12C225.03 101.06 225.27 100.99 225.51 100.9C225.75 100.81 225.98 100.71 226.2 100.6C226.4 100.48 226.59 100.35 226.77 100.2C226.95 100.05 227.12 99.9 227.29 99.73C227.45 99.56 227.59 99.38 227.73 99.19C227.87 99 227.99 98.81 228.1 98.6C228.18 98.38 228.25 98.15 228.31 97.92C228.37 97.69 228.41 97.46 228.45 97.22C228.48 96.99 228.5 96.75 228.51 96.51C228.52 96.27 228.52 96.04 228.5 95.8L228.5 94.8Z" />
		<path id="Layer" class="shp1" d="M235.7 103.1L235.7 86.5L238.3 86.5L238.3 88.9C238.56 88.45 238.89 88.04 239.26 87.69C239.63 87.33 240.05 87.02 240.51 86.77C240.97 86.53 241.45 86.35 241.96 86.23C242.46 86.12 242.98 86.07 243.5 86.1C243.74 86.1 243.98 86.11 244.22 86.13C244.46 86.15 244.7 86.19 244.93 86.24C245.17 86.29 245.4 86.36 245.63 86.43C245.86 86.51 246.08 86.6 246.3 86.7C246.49 86.77 246.67 86.85 246.85 86.94C247.03 87.03 247.19 87.14 247.36 87.26C247.52 87.38 247.67 87.51 247.81 87.65C247.95 87.79 248.08 87.94 248.2 88.1C248.3 88.26 248.4 88.43 248.49 88.59C248.58 88.76 248.66 88.94 248.74 89.11C248.82 89.29 248.88 89.47 248.94 89.65C249 89.83 249.06 90.01 249.1 90.2C249.13 90.42 249.15 90.65 249.16 90.87C249.18 91.1 249.19 91.32 249.2 91.55C249.21 91.77 249.21 92 249.21 92.22C249.21 92.45 249.21 92.67 249.2 92.9L249.2 103.1L246.4 103.1L246.4 93C246.41 92.78 246.41 92.56 246.4 92.34C246.39 92.12 246.37 91.91 246.35 91.69C246.32 91.47 246.29 91.25 246.25 91.04C246.21 90.82 246.16 90.61 246.1 90.4C246.04 90.26 245.97 90.13 245.89 90C245.81 89.87 245.72 89.75 245.62 89.64C245.52 89.53 245.4 89.43 245.28 89.34C245.16 89.25 245.03 89.17 244.9 89.1C244.75 89.01 244.6 88.93 244.44 88.86C244.28 88.79 244.11 88.73 243.94 88.69C243.77 88.65 243.6 88.62 243.42 88.6C243.25 88.59 243.07 88.59 242.9 88.6C242.62 88.59 242.34 88.6 242.06 88.65C241.78 88.69 241.51 88.76 241.24 88.85C240.98 88.94 240.72 89.06 240.48 89.21C240.24 89.35 240.01 89.51 239.8 89.7C239 90.5 238.5 91.9 238.5 94L238.5 103.1L235.7 103.1Z" />
		<path id="Layer" class="shp1" d="M264.4 103.1L264.4 100.7C263.98 101.32 263.44 101.87 262.83 102.31C262.22 102.75 261.53 103.07 260.8 103.27C260.08 103.47 259.32 103.54 258.57 103.48C257.82 103.41 257.08 103.22 256.4 102.9C256.21 102.83 256.03 102.75 255.85 102.66C255.68 102.56 255.51 102.46 255.35 102.34C255.19 102.22 255.03 102.09 254.89 101.95C254.75 101.81 254.62 101.66 254.5 101.5C254.4 101.34 254.3 101.17 254.21 101.01C254.12 100.84 254.04 100.66 253.96 100.49C253.88 100.31 253.82 100.13 253.76 99.95C253.7 99.77 253.64 99.59 253.6 99.4C253.58 99.18 253.55 98.97 253.54 98.75C253.52 98.54 253.51 98.32 253.5 98.1C253.49 97.89 253.49 97.67 253.49 97.45C253.49 97.23 253.49 97.02 253.5 96.8L253.5 86.5L256.3 86.5L256.3 95.7C256.28 95.95 256.27 96.2 256.27 96.45C256.27 96.7 256.28 96.96 256.29 97.21C256.31 97.46 256.34 97.71 256.37 97.96C256.41 98.21 256.45 98.45 256.5 98.7C256.53 98.87 256.57 99.04 256.63 99.2C256.7 99.36 256.78 99.52 256.87 99.67C256.96 99.81 257.07 99.95 257.2 100.07C257.32 100.19 257.45 100.3 257.6 100.4C257.75 100.51 257.91 100.61 258.08 100.69C258.25 100.77 258.42 100.85 258.6 100.91C258.78 100.97 258.96 101.01 259.14 101.04C259.33 101.08 259.51 101.1 259.7 101.1C259.91 101.09 260.12 101.07 260.33 101.04C260.54 101 260.74 100.96 260.94 100.9C261.15 100.84 261.34 100.77 261.54 100.69C261.73 100.6 261.92 100.51 262.1 100.4C262.28 100.3 262.44 100.18 262.6 100.05C262.76 99.92 262.9 99.78 263.04 99.62C263.17 99.47 263.3 99.31 263.41 99.14C263.52 98.97 263.62 98.79 263.7 98.6C263.78 98.34 263.85 98.08 263.91 97.82C263.97 97.55 264.01 97.29 264.05 97.02C264.08 96.75 264.1 96.48 264.11 96.21C264.12 95.94 264.12 95.67 264.1 95.4L264.1 86.5L266.9 86.5L266.9 103.1L264.4 103.1Z" />
		<path id="Layer" class="shp1" d="M272 103.1L272 88.7L269.5 88.7L269.5 86.5L272 86.5L272 84.7C271.99 84.49 271.99 84.28 272 84.07C272.01 83.86 272.03 83.65 272.05 83.44C272.08 83.23 272.11 83.02 272.15 82.81C272.19 82.61 272.24 82.4 272.3 82.2C272.37 82.03 272.46 81.86 272.55 81.7C272.65 81.54 272.76 81.39 272.88 81.25C273 81.11 273.12 80.97 273.26 80.85C273.4 80.72 273.55 80.6 273.7 80.5C273.92 80.37 274.14 80.26 274.38 80.16C274.61 80.07 274.85 79.99 275.1 79.93C275.34 79.87 275.59 79.83 275.84 79.81C276.1 79.79 276.35 79.78 276.6 79.8L279.2 80.1L278.8 82.5L277.2 82.5C277.03 82.48 276.87 82.47 276.7 82.48C276.53 82.49 276.36 82.52 276.2 82.56C276.04 82.61 275.88 82.66 275.73 82.74C275.58 82.81 275.43 82.9 275.3 83C275.21 83.16 275.12 83.32 275.06 83.49C274.99 83.66 274.93 83.83 274.89 84.01C274.85 84.19 274.82 84.37 274.8 84.55C274.79 84.73 274.79 84.92 274.8 85.1L274.8 86.6L278 86.6L278 88.8L274.8 88.8L274.8 103.2L272 103.1Z" />
		<path id="Layer" fill-rule="evenodd" class="shp1" d="M290.4 101.63C290.16 101.8 289.91 101.95 289.66 102.11C289.41 102.26 289.16 102.4 288.9 102.53C288.63 102.66 288.37 102.79 288.1 102.9C287.85 103 287.6 103.09 287.35 103.16C287.1 103.24 286.84 103.3 286.58 103.35C286.32 103.4 286.06 103.44 285.79 103.47C285.53 103.49 285.26 103.5 285 103.5C284.62 103.53 284.24 103.52 283.87 103.47C283.49 103.43 283.12 103.34 282.76 103.22C282.4 103.1 282.05 102.95 281.72 102.76C281.39 102.57 281.08 102.35 280.8 102.1C280.56 101.89 280.34 101.66 280.15 101.4C279.95 101.14 279.79 100.86 279.66 100.57C279.53 100.28 279.44 99.97 279.38 99.66C279.32 99.34 279.29 99.02 279.3 98.7C279.3 98.51 279.31 98.32 279.34 98.13C279.36 97.95 279.39 97.76 279.43 97.57C279.48 97.39 279.53 97.21 279.59 97.03C279.65 96.85 279.72 96.67 279.8 96.5C279.89 96.34 279.99 96.18 280.1 96.03C280.21 95.89 280.33 95.74 280.45 95.61C280.58 95.47 280.71 95.35 280.86 95.23C281 95.11 281.15 95 281.3 94.9C281.45 94.8 281.61 94.71 281.77 94.62C281.93 94.53 282.1 94.45 282.27 94.37C282.43 94.3 282.6 94.23 282.78 94.17C282.95 94.1 283.12 94.05 283.3 94L285.8 93.5C286.22 93.47 286.64 93.42 287.07 93.37C287.49 93.32 287.91 93.25 288.32 93.18C288.74 93.1 289.16 93.02 289.57 92.92C289.98 92.82 290.39 92.72 290.8 92.6C290.8 92.53 290.81 92.47 290.81 92.4C290.82 92.33 290.83 92.26 290.84 92.2C290.84 92.13 290.85 92.06 290.86 92C290.87 91.93 290.89 91.87 290.9 91.8C290.92 91.58 290.91 91.37 290.88 91.15C290.86 90.94 290.81 90.73 290.74 90.52C290.67 90.31 290.58 90.12 290.47 89.93C290.37 89.74 290.24 89.56 290.1 89.4C289.87 89.24 289.62 89.1 289.37 88.98C289.11 88.86 288.85 88.76 288.58 88.68C288.3 88.61 288.03 88.55 287.75 88.52C287.46 88.49 287.18 88.48 286.9 88.5C286.64 88.48 286.38 88.48 286.13 88.5C285.87 88.52 285.61 88.55 285.36 88.6C285.11 88.65 284.86 88.72 284.61 88.8C284.37 88.89 284.13 88.99 283.9 89.1C283.72 89.26 283.56 89.44 283.41 89.63C283.25 89.82 283.12 90.03 283 90.24C282.88 90.45 282.78 90.67 282.7 90.9C282.61 91.13 282.55 91.36 282.5 91.6L279.8 91.2C279.84 90.95 279.89 90.69 279.96 90.45C280.03 90.2 280.12 89.96 280.22 89.72C280.32 89.49 280.44 89.26 280.57 89.04C280.7 88.82 280.84 88.6 281 88.4C281.17 88.21 281.34 88.02 281.54 87.85C281.73 87.68 281.93 87.53 282.14 87.38C282.35 87.24 282.57 87.11 282.8 87C283.02 86.88 283.26 86.78 283.5 86.7C283.8 86.59 284.11 86.5 284.43 86.42C284.74 86.34 285.05 86.28 285.37 86.23C285.69 86.18 286.01 86.14 286.33 86.12C286.66 86.1 286.98 86.09 287.3 86.1C287.59 86.1 287.88 86.1 288.16 86.12C288.45 86.14 288.74 86.17 289.02 86.21C289.31 86.25 289.59 86.31 289.87 86.37C290.15 86.44 290.43 86.51 290.7 86.6C290.89 86.67 291.07 86.75 291.25 86.84C291.43 86.93 291.61 87.03 291.77 87.14C291.94 87.25 292.1 87.36 292.26 87.49C292.41 87.62 292.56 87.76 292.7 87.9C292.81 88.04 292.91 88.18 293 88.33C293.09 88.48 293.17 88.63 293.24 88.79C293.3 88.95 293.36 89.12 293.4 89.29C293.45 89.46 293.48 89.63 293.5 89.8C293.54 90.01 293.57 90.23 293.6 90.45C293.62 90.66 293.65 90.88 293.66 91.1C293.68 91.31 293.69 91.53 293.7 91.75C293.7 91.96 293.7 92.18 293.7 92.4L293.7 96.1C293.68 96.52 293.67 96.93 293.66 97.35C293.66 97.77 293.67 98.19 293.68 98.6C293.7 99.02 293.73 99.44 293.76 99.85C293.8 100.27 293.84 100.69 293.9 101.1C293.92 101.28 293.95 101.45 293.99 101.63C294.03 101.8 294.08 101.97 294.14 102.14C294.2 102.31 294.27 102.47 294.34 102.63C294.42 102.79 294.51 102.95 294.6 103.1L291.6 103.1C291.53 102.94 291.47 102.78 291.42 102.62C291.36 102.45 291.31 102.29 291.27 102.12C291.23 101.95 291.19 101.78 291.16 101.61C291.14 101.44 291.11 101.27 291.1 101.1C290.87 101.28 290.64 101.46 290.4 101.63ZM290.8 94.8C290.43 94.92 290.05 95.04 289.67 95.14C289.29 95.25 288.91 95.34 288.53 95.43C288.14 95.51 287.76 95.58 287.37 95.64C286.98 95.71 286.59 95.76 286.2 95.8L283.8 96.4C283.69 96.44 283.57 96.49 283.47 96.55C283.36 96.6 283.26 96.67 283.17 96.75C283.07 96.83 282.99 96.91 282.91 97C282.83 97.1 282.76 97.19 282.7 97.3C282.63 97.39 282.57 97.49 282.52 97.6C282.47 97.7 282.43 97.81 282.4 97.92C282.36 98.03 282.34 98.14 282.32 98.26C282.31 98.37 282.3 98.48 282.3 98.6C282.3 98.78 282.31 98.95 282.35 99.13C282.38 99.3 282.44 99.47 282.5 99.63C282.57 99.8 282.66 99.95 282.76 100.1C282.86 100.24 282.97 100.38 283.1 100.5C283.28 100.64 283.46 100.76 283.66 100.87C283.86 100.97 284.06 101.06 284.28 101.13C284.49 101.2 284.71 101.25 284.93 101.27C285.15 101.3 285.38 101.31 285.6 101.3C285.85 101.3 286.1 101.28 286.35 101.25C286.6 101.22 286.85 101.18 287.09 101.12C287.33 101.06 287.57 100.99 287.81 100.9C288.05 100.81 288.28 100.71 288.5 100.6C288.7 100.49 288.9 100.36 289.08 100.21C289.27 100.07 289.44 99.92 289.6 99.75C289.76 99.58 289.91 99.4 290.05 99.2C290.18 99.01 290.3 98.81 290.4 98.6C290.48 98.38 290.55 98.15 290.61 97.92C290.67 97.69 290.71 97.46 290.75 97.22C290.78 96.99 290.8 96.75 290.81 96.51C290.82 96.27 290.82 96.04 290.8 95.8L290.8 94.8Z" />
		<path id="Layer" class="shp1" d="M308.9 97L311.7 97.4C311.64 97.83 311.54 98.25 311.4 98.66C311.26 99.08 311.09 99.47 310.89 99.86C310.68 100.24 310.45 100.6 310.18 100.95C309.92 101.29 309.62 101.61 309.3 101.9C308.58 102.46 307.76 102.89 306.88 103.16C306 103.43 305.08 103.53 304.17 103.47C303.25 103.4 302.35 103.17 301.52 102.78C300.69 102.4 299.94 101.86 299.3 101.2C297.9 99.8 297.2 97.6 297.2 94.9C297.19 94.5 297.2 94.1 297.24 93.7C297.27 93.3 297.32 92.9 297.4 92.5C297.47 92.11 297.57 91.72 297.69 91.33C297.8 90.95 297.94 90.57 298.1 90.2C298.23 89.88 298.39 89.56 298.57 89.27C298.75 88.97 298.96 88.69 299.19 88.42C299.42 88.16 299.67 87.92 299.94 87.69C300.21 87.47 300.5 87.27 300.8 87.1C301.11 86.94 301.42 86.8 301.75 86.67C302.07 86.55 302.4 86.45 302.74 86.36C303.08 86.28 303.42 86.21 303.76 86.17C304.11 86.13 304.45 86.1 304.8 86.1C305.19 86.09 305.58 86.11 305.97 86.17C306.36 86.22 306.74 86.31 307.12 86.43C307.49 86.55 307.86 86.7 308.2 86.88C308.55 87.06 308.89 87.26 309.2 87.5C309.49 87.74 309.76 88.01 310.01 88.31C310.25 88.6 310.47 88.92 310.66 89.25C310.85 89.58 311 89.93 311.13 90.29C311.25 90.65 311.34 91.02 311.4 91.4L308.6 91.8C308.57 91.56 308.51 91.33 308.44 91.1C308.36 90.87 308.27 90.65 308.16 90.44C308.05 90.23 307.92 90.03 307.78 89.83C307.63 89.64 307.47 89.46 307.3 89.3C307.14 89.16 306.96 89.03 306.77 88.91C306.58 88.8 306.39 88.71 306.18 88.63C305.98 88.55 305.77 88.49 305.55 88.46C305.34 88.42 305.12 88.4 304.9 88.4C304.57 88.38 304.23 88.41 303.91 88.47C303.58 88.53 303.26 88.64 302.96 88.78C302.65 88.91 302.37 89.09 302.1 89.29C301.84 89.5 301.61 89.74 301.4 90C300.5 91 300.1 92.6 300.1 94.8C300.1 97 300.5 98.6 301.4 99.6C301.58 99.86 301.8 100.1 302.04 100.3C302.29 100.51 302.56 100.69 302.84 100.82C303.13 100.96 303.44 101.07 303.75 101.13C304.06 101.19 304.38 101.22 304.7 101.2C304.96 101.2 305.21 101.18 305.47 101.13C305.72 101.08 305.97 101.01 306.2 100.92C306.44 100.82 306.67 100.71 306.89 100.57C307.11 100.43 307.31 100.28 307.5 100.1C307.7 99.89 307.89 99.67 308.05 99.43C308.21 99.19 308.35 98.94 308.47 98.67C308.59 98.41 308.69 98.14 308.76 97.85C308.83 97.57 308.88 97.29 308.9 97L308.9 97Z" />
		<path id="Layer" class="shp1" d="M320.2 100.6L320.6 103.1L318.5 103.3C318.29 103.32 318.09 103.32 317.88 103.31C317.67 103.29 317.47 103.27 317.26 103.22C317.06 103.18 316.86 103.13 316.67 103.05C316.47 102.98 316.28 102.9 316.1 102.8C315.97 102.74 315.84 102.67 315.72 102.59C315.6 102.51 315.49 102.42 315.39 102.31C315.28 102.21 315.19 102.1 315.11 101.98C315.03 101.86 314.96 101.73 314.9 101.6C314.84 101.32 314.78 101.04 314.74 100.76C314.69 100.48 314.66 100.19 314.63 99.91C314.61 99.63 314.59 99.34 314.59 99.06C314.58 98.77 314.59 98.49 314.6 98.2L314.6 88.7L312.5 88.7L312.5 86.5L314.6 86.5L314.6 82.4L317.4 80.7L317.4 86.5L320.2 86.5L320.2 88.7L317.4 88.7L317.4 98.4C317.39 98.53 317.38 98.65 317.38 98.78C317.38 98.9 317.38 99.03 317.39 99.15C317.4 99.28 317.41 99.4 317.43 99.53C317.45 99.65 317.47 99.78 317.5 99.9C317.52 99.96 317.55 100.03 317.58 100.08C317.61 100.14 317.65 100.2 317.69 100.25C317.73 100.3 317.78 100.35 317.83 100.39C317.88 100.43 317.94 100.47 318 100.5L319 100.7L320.2 100.6Z" />
		<path id="Layer" class="shp1" d="M333.8 103.1L333.8 100.7C333.52 101.13 333.18 101.52 332.81 101.87C332.43 102.22 332.01 102.52 331.55 102.76C331.1 103 330.62 103.19 330.12 103.31C329.63 103.44 329.11 103.5 328.6 103.5C328.36 103.5 328.12 103.49 327.88 103.46C327.64 103.44 327.4 103.4 327.17 103.35C326.93 103.3 326.7 103.24 326.47 103.16C326.24 103.09 326.02 103 325.8 102.9C325.62 102.83 325.44 102.74 325.26 102.64C325.09 102.55 324.92 102.44 324.76 102.32C324.6 102.2 324.45 102.08 324.3 101.94C324.16 101.8 324.03 101.65 323.9 101.5C323.79 101.34 323.7 101.18 323.61 101.01C323.52 100.85 323.45 100.67 323.38 100.5C323.31 100.32 323.25 100.14 323.21 99.96C323.16 99.77 323.12 99.59 323.1 99.4C323.06 99.19 323.03 98.97 323.01 98.75C322.98 98.54 322.96 98.32 322.94 98.1C322.92 97.89 322.91 97.67 322.91 97.45C322.9 97.24 322.9 97.02 322.9 96.8L322.9 86.5L325.7 86.5L325.7 95.7C325.69 95.95 325.69 96.2 325.7 96.45C325.71 96.7 325.72 96.95 325.73 97.2C325.75 97.45 325.77 97.7 325.8 97.95C325.83 98.2 325.86 98.45 325.9 98.7C325.94 98.87 325.99 99.03 326.05 99.19C326.12 99.35 326.2 99.51 326.29 99.65C326.38 99.8 326.49 99.93 326.61 100.06C326.73 100.18 326.86 100.3 327 100.4C327.15 100.51 327.31 100.61 327.48 100.69C327.65 100.77 327.82 100.85 328 100.91C328.18 100.97 328.36 101.01 328.54 101.04C328.73 101.08 328.91 101.1 329.1 101.1C329.31 101.1 329.52 101.08 329.73 101.05C329.94 101.01 330.14 100.97 330.35 100.91C330.55 100.85 330.75 100.78 330.94 100.69C331.13 100.61 331.32 100.51 331.5 100.4C331.69 100.31 331.86 100.2 332.03 100.08C332.19 99.96 332.34 99.82 332.48 99.66C332.62 99.51 332.74 99.34 332.84 99.16C332.95 98.98 333.03 98.8 333.1 98.6C333.18 98.34 333.25 98.08 333.31 97.82C333.37 97.55 333.41 97.29 333.45 97.02C333.48 96.75 333.5 96.48 333.51 96.21C333.52 95.94 333.52 95.67 333.5 95.4L333.5 86.5L336.4 86.5L336.4 103.1L333.8 103.1Z" />
		<path id="Layer" class="shp1" d="M340.7 103.1L340.7 86.5L343.3 86.5L343.3 89C343.4 88.77 343.51 88.55 343.63 88.34C343.76 88.13 343.9 87.93 344.05 87.73C344.2 87.54 344.37 87.36 344.54 87.18C344.72 87.01 344.9 86.85 345.1 86.7C345.23 86.6 345.36 86.51 345.5 86.43C345.65 86.36 345.79 86.29 345.95 86.24C346.1 86.19 346.26 86.15 346.42 86.13C346.58 86.11 346.74 86.1 346.9 86.1C347.16 86.11 347.41 86.13 347.66 86.18C347.92 86.22 348.17 86.28 348.41 86.35C348.66 86.43 348.9 86.52 349.13 86.63C349.36 86.74 349.58 86.86 349.8 87L348.8 89.6C348.64 89.51 348.48 89.42 348.31 89.35C348.14 89.27 347.97 89.21 347.79 89.16C347.61 89.11 347.43 89.07 347.25 89.04C347.07 89.02 346.88 89 346.7 89C346.55 89 346.41 89.02 346.27 89.04C346.12 89.07 345.98 89.11 345.85 89.16C345.71 89.21 345.58 89.27 345.45 89.35C345.33 89.42 345.21 89.51 345.1 89.6C344.98 89.7 344.86 89.8 344.75 89.91C344.64 90.02 344.54 90.14 344.44 90.27C344.35 90.4 344.27 90.53 344.19 90.67C344.12 90.81 344.05 90.95 344 91.1C343.93 91.37 343.86 91.64 343.81 91.91C343.76 92.18 343.71 92.46 343.68 92.74C343.65 93.01 343.62 93.29 343.61 93.57C343.6 93.84 343.59 94.12 343.6 94.4L343.6 103.1L340.7 103.1Z" />
		<path id="Layer" class="shp1" d="M351.4 83.4L351.4 80.2L354.3 80.2L354.3 83.4L351.4 83.4ZM351.4 103.1L351.4 86.5L354.3 86.5L354.3 103.1L351.4 103.1Z" />
		<path id="Layer" class="shp1" d="M358.5 103.1L358.5 86.5L361.1 86.5L361.1 88.9C361.38 88.45 361.71 88.05 362.09 87.69C362.47 87.33 362.9 87.02 363.37 86.78C363.83 86.53 364.33 86.35 364.84 86.24C365.35 86.12 365.88 86.08 366.4 86.1C366.63 86.1 366.87 86.11 367.1 86.13C367.33 86.15 367.56 86.19 367.79 86.24C368.01 86.29 368.24 86.36 368.46 86.43C368.68 86.51 368.89 86.6 369.1 86.7C369.29 86.76 369.48 86.83 369.66 86.92C369.84 87.01 370.01 87.12 370.17 87.24C370.33 87.35 370.48 87.49 370.62 87.63C370.76 87.78 370.89 87.93 371 88.1C371.1 88.26 371.2 88.43 371.29 88.59C371.38 88.76 371.46 88.94 371.54 89.11C371.62 89.29 371.68 89.47 371.74 89.65C371.8 89.83 371.86 90.01 371.9 90.2C371.93 90.42 371.95 90.65 371.96 90.87C371.98 91.1 371.99 91.32 372 91.55C372.01 91.77 372.01 92 372.01 92.22C372.01 92.45 372.01 92.67 372 92.9L372 103.1L369.2 103.1L369.2 93C369.21 92.78 369.21 92.56 369.2 92.34C369.19 92.12 369.17 91.91 369.15 91.69C369.12 91.47 369.09 91.25 369.05 91.04C369.01 90.82 368.96 90.61 368.9 90.4C368.84 90.26 368.77 90.13 368.69 90C368.61 89.87 368.52 89.75 368.42 89.64C368.32 89.53 368.2 89.43 368.08 89.34C367.96 89.25 367.83 89.17 367.7 89.1C367.56 89.01 367.42 88.93 367.26 88.86C367.11 88.79 366.95 88.73 366.79 88.69C366.63 88.65 366.47 88.62 366.3 88.6C366.13 88.59 365.97 88.59 365.8 88.6C365.52 88.58 365.24 88.59 364.96 88.63C364.68 88.67 364.4 88.74 364.14 88.83C363.87 88.93 363.62 89.05 363.38 89.19C363.13 89.34 362.91 89.51 362.7 89.7C361.8 90.5 361.4 91.9 361.4 94L361.4 103.1L358.5 103.1Z" />
		<path id="Layer" fill-rule="evenodd" class="shp1" d="M378.6 104.9C378.61 105.07 378.64 105.24 378.69 105.41C378.73 105.58 378.79 105.74 378.87 105.89C378.95 106.04 379.04 106.19 379.14 106.33C379.25 106.46 379.37 106.59 379.5 106.7C379.71 106.84 379.94 106.96 380.17 107.06C380.4 107.17 380.64 107.26 380.89 107.32C381.13 107.39 381.38 107.44 381.64 107.47C381.89 107.5 382.15 107.51 382.4 107.5C382.66 107.51 382.93 107.51 383.19 107.48C383.45 107.45 383.71 107.4 383.96 107.33C384.22 107.27 384.47 107.18 384.71 107.07C384.95 106.97 385.18 106.84 385.4 106.7C385.58 106.57 385.75 106.43 385.91 106.27C386.06 106.1 386.2 105.93 386.32 105.74C386.44 105.55 386.54 105.35 386.62 105.14C386.7 104.94 386.76 104.72 386.8 104.5C386.87 104.21 386.92 103.91 386.97 103.61C387.02 103.31 387.05 103.01 387.08 102.71C387.1 102.41 387.12 102.11 387.12 101.81C387.13 101.5 387.12 101.2 387.1 100.9C386.83 101.25 386.51 101.56 386.17 101.83C385.83 102.11 385.45 102.34 385.05 102.53C384.66 102.72 384.24 102.87 383.81 102.96C383.38 103.06 382.94 103.1 382.5 103.1C381.99 103.13 381.48 103.1 380.98 103C380.48 102.9 379.99 102.75 379.53 102.53C379.07 102.31 378.64 102.04 378.24 101.71C377.85 101.39 377.5 101.01 377.2 100.6C376.88 100.18 376.59 99.74 376.34 99.27C376.1 98.81 375.89 98.32 375.73 97.82C375.57 97.31 375.45 96.8 375.38 96.28C375.31 95.75 375.28 95.23 375.3 94.7C375.3 94.33 375.32 93.95 375.35 93.58C375.39 93.2 375.44 92.83 375.5 92.46C375.57 92.1 375.66 91.73 375.75 91.37C375.85 91.01 375.97 90.65 376.1 90.3C376.23 89.99 376.38 89.69 376.55 89.4C376.72 89.11 376.91 88.83 377.12 88.57C377.34 88.31 377.57 88.06 377.81 87.83C378.06 87.6 378.32 87.39 378.6 87.2C378.89 87.02 379.19 86.85 379.5 86.72C379.82 86.58 380.14 86.46 380.47 86.37C380.8 86.27 381.14 86.2 381.48 86.16C381.81 86.11 382.16 86.1 382.5 86.1C382.96 86.1 383.43 86.15 383.88 86.26C384.33 86.37 384.77 86.53 385.18 86.73C385.6 86.94 385.99 87.2 386.34 87.49C386.7 87.79 387.02 88.13 387.3 88.5L387.3 86.5L389.9 86.5L389.9 100.8C389.9 103.4 389.7 105.3 389.1 106.3C388.98 106.58 388.83 106.85 388.66 107.1C388.48 107.36 388.29 107.6 388.08 107.82C387.87 108.04 387.63 108.24 387.39 108.42C387.14 108.61 386.88 108.76 386.6 108.9C386.28 109.06 385.94 109.2 385.6 109.32C385.26 109.44 384.91 109.54 384.56 109.61C384.2 109.69 383.84 109.74 383.48 109.77C383.12 109.81 382.76 109.81 382.4 109.8C381.98 109.83 381.56 109.82 381.14 109.77C380.72 109.73 380.3 109.65 379.89 109.54C379.49 109.43 379.09 109.29 378.7 109.11C378.32 108.94 377.95 108.73 377.6 108.5C377.3 108.27 377.02 108 376.79 107.7C376.55 107.4 376.35 107.08 376.19 106.73C376.04 106.38 375.92 106.01 375.86 105.64C375.79 105.26 375.77 104.88 375.8 104.5L378.6 104.9ZM379.5 99.3C379.69 99.54 379.9 99.76 380.14 99.95C380.38 100.14 380.64 100.3 380.92 100.43C381.2 100.56 381.49 100.66 381.79 100.72C382.09 100.78 382.39 100.81 382.7 100.8C383.01 100.8 383.32 100.77 383.63 100.71C383.93 100.64 384.23 100.54 384.52 100.41C384.8 100.29 385.07 100.13 385.32 99.94C385.57 99.75 385.8 99.54 386 99.3C386.23 98.96 386.44 98.6 386.61 98.22C386.79 97.85 386.93 97.46 387.04 97.06C387.15 96.66 387.23 96.25 387.27 95.84C387.32 95.43 387.33 95.01 387.3 94.6C387.33 94.19 387.32 93.78 387.27 93.37C387.22 92.97 387.14 92.56 387.02 92.17C386.9 91.78 386.75 91.4 386.56 91.04C386.37 90.67 386.15 90.32 385.9 90C385.7 89.77 385.48 89.56 385.24 89.37C385 89.18 384.74 89.03 384.47 88.9C384.19 88.77 383.9 88.67 383.6 88.6C383.31 88.54 383 88.5 382.7 88.5C382.4 88.5 382.09 88.53 381.79 88.59C381.5 88.66 381.21 88.76 380.93 88.89C380.65 89.02 380.39 89.18 380.15 89.36C379.91 89.55 379.69 89.76 379.5 90C379.26 90.32 379.05 90.66 378.87 91.02C378.69 91.37 378.54 91.74 378.43 92.13C378.32 92.51 378.24 92.91 378.21 93.3C378.17 93.7 378.17 94.1 378.2 94.5C378.2 96.7 378.6 98.3 379.5 99.3Z" />
		<path id="Layer" class="shp1" d="M419.8 95.1L422.8 95.8C422.68 96.35 422.52 96.89 422.32 97.42C422.11 97.94 421.87 98.45 421.58 98.93C421.29 99.42 420.96 99.88 420.59 100.31C420.23 100.74 419.83 101.14 419.4 101.5C418.97 101.83 418.51 102.13 418.02 102.38C417.54 102.64 417.04 102.85 416.52 103.02C416 103.19 415.47 103.32 414.93 103.4C414.39 103.48 413.85 103.51 413.3 103.5C412.78 103.52 412.25 103.51 411.73 103.45C411.21 103.4 410.7 103.31 410.19 103.18C409.68 103.06 409.19 102.89 408.7 102.7C408.22 102.5 407.75 102.27 407.3 102C406.9 101.74 406.53 101.44 406.18 101.12C405.82 100.8 405.5 100.45 405.2 100.08C404.91 99.7 404.64 99.31 404.4 98.89C404.17 98.48 403.97 98.05 403.8 97.6C403.59 97.12 403.4 96.63 403.24 96.13C403.08 95.63 402.95 95.13 402.84 94.62C402.73 94.1 402.65 93.59 402.59 93.07C402.53 92.55 402.5 92.02 402.5 91.5C402.49 90.96 402.51 90.41 402.57 89.87C402.62 89.33 402.71 88.8 402.83 88.27C402.95 87.74 403.1 87.22 403.27 86.7C403.45 86.19 403.66 85.69 403.9 85.2C404.11 84.77 404.35 84.37 404.62 83.98C404.89 83.59 405.2 83.23 405.53 82.89C405.86 82.55 406.22 82.23 406.6 81.95C406.98 81.67 407.38 81.42 407.8 81.2C408.22 80.96 408.66 80.74 409.11 80.56C409.57 80.38 410.03 80.23 410.5 80.11C410.98 79.99 411.46 79.91 411.94 79.86C412.43 79.8 412.91 79.78 413.4 79.8C413.91 79.79 414.42 79.81 414.93 79.88C415.44 79.95 415.94 80.05 416.43 80.2C416.92 80.34 417.4 80.52 417.87 80.74C418.33 80.96 418.78 81.21 419.2 81.5C419.59 81.82 419.96 82.16 420.3 82.54C420.63 82.91 420.94 83.31 421.21 83.74C421.48 84.16 421.72 84.61 421.92 85.07C422.12 85.53 422.28 86.01 422.4 86.5L419.4 87.2C419.31 86.84 419.19 86.49 419.05 86.15C418.9 85.81 418.73 85.49 418.54 85.17C418.34 84.86 418.12 84.56 417.88 84.28C417.64 84 417.38 83.74 417.1 83.5C416.82 83.31 416.53 83.15 416.22 83.01C415.92 82.87 415.61 82.75 415.28 82.66C414.96 82.57 414.63 82.5 414.3 82.45C413.97 82.41 413.63 82.39 413.3 82.4C412.91 82.39 412.53 82.4 412.14 82.44C411.76 82.49 411.38 82.56 411.01 82.66C410.64 82.76 410.27 82.89 409.92 83.05C409.57 83.21 409.22 83.39 408.9 83.6C408.61 83.82 408.33 84.05 408.07 84.31C407.82 84.57 407.58 84.85 407.37 85.15C407.16 85.45 406.97 85.76 406.81 86.09C406.65 86.41 406.51 86.75 406.4 87.1C406.28 87.45 406.17 87.81 406.08 88.17C405.99 88.53 405.91 88.9 405.86 89.27C405.8 89.64 405.75 90.01 405.73 90.38C405.7 90.75 405.69 91.13 405.7 91.5C405.7 91.93 405.71 92.36 405.74 92.8C405.78 93.23 405.83 93.66 405.89 94.08C405.96 94.51 406.04 94.93 406.15 95.35C406.25 95.77 406.37 96.19 406.5 96.6C406.63 96.93 406.79 97.25 406.97 97.55C407.15 97.86 407.36 98.15 407.59 98.42C407.82 98.69 408.07 98.94 408.34 99.18C408.61 99.41 408.9 99.62 409.2 99.8C409.49 99.98 409.8 100.13 410.11 100.27C410.42 100.4 410.75 100.52 411.08 100.61C411.41 100.7 411.74 100.77 412.08 100.82C412.42 100.87 412.76 100.9 413.1 100.9C413.49 100.91 413.88 100.89 414.26 100.83C414.64 100.77 415.02 100.67 415.39 100.55C415.75 100.42 416.11 100.26 416.45 100.06C416.78 99.87 417.1 99.65 417.4 99.4C417.72 99.12 418.01 98.82 418.27 98.5C418.53 98.17 418.77 97.82 418.97 97.46C419.18 97.09 419.35 96.71 419.49 96.31C419.63 95.92 419.73 95.51 419.8 95.1Z" />
		<path id="Layer" fill-rule="evenodd" class="shp1" d="M425.1 94.8C425.1 91.7 426 89.4 427.7 88C428.46 87.36 429.32 86.86 430.26 86.54C431.2 86.21 432.19 86.06 433.18 86.1C434.17 86.14 435.14 86.36 436.05 86.75C436.96 87.14 437.79 87.7 438.5 88.4C438.88 88.81 439.22 89.26 439.52 89.75C439.81 90.23 440.05 90.74 440.24 91.27C440.43 91.8 440.56 92.35 440.64 92.91C440.72 93.47 440.74 94.04 440.7 94.6C440.72 95.03 440.72 95.46 440.69 95.89C440.66 96.32 440.6 96.74 440.52 97.16C440.44 97.59 440.33 98 440.19 98.41C440.05 98.82 439.89 99.21 439.7 99.6C439.55 99.91 439.38 100.2 439.18 100.48C438.99 100.76 438.77 101.03 438.53 101.27C438.29 101.52 438.04 101.75 437.76 101.95C437.49 102.16 437.2 102.34 436.9 102.5C436.59 102.66 436.28 102.8 435.95 102.93C435.63 103.05 435.3 103.15 434.96 103.24C434.62 103.32 434.28 103.39 433.94 103.43C433.59 103.47 433.25 103.5 432.9 103.5C432.38 103.52 431.86 103.48 431.35 103.39C430.84 103.29 430.34 103.15 429.85 102.95C429.37 102.75 428.91 102.5 428.48 102.21C428.06 101.92 427.66 101.58 427.3 101.2C426.92 100.76 426.58 100.29 426.29 99.79C426 99.29 425.76 98.76 425.58 98.21C425.39 97.67 425.25 97.1 425.17 96.53C425.09 95.96 425.07 95.38 425.1 94.8ZM428 94.8C427.97 95.22 427.98 95.65 428.03 96.07C428.08 96.5 428.16 96.91 428.28 97.32C428.4 97.73 428.56 98.13 428.74 98.51C428.93 98.89 429.15 99.26 429.4 99.6C429.62 99.85 429.87 100.07 430.13 100.26C430.4 100.46 430.68 100.63 430.98 100.77C431.28 100.9 431.6 101.01 431.92 101.08C432.24 101.16 432.57 101.19 432.9 101.2C433.23 101.2 433.56 101.17 433.89 101.1C434.21 101.03 434.52 100.92 434.83 100.78C435.13 100.65 435.41 100.48 435.68 100.28C435.94 100.08 436.18 99.85 436.4 99.6C436.65 99.25 436.88 98.88 437.07 98.49C437.25 98.1 437.41 97.69 437.53 97.27C437.65 96.86 437.73 96.43 437.78 96C437.82 95.57 437.83 95.13 437.8 94.7C437.82 94.28 437.81 93.87 437.76 93.45C437.71 93.04 437.63 92.63 437.51 92.23C437.39 91.83 437.23 91.44 437.05 91.07C436.86 90.69 436.65 90.34 436.4 90C436.18 89.76 435.94 89.54 435.67 89.34C435.4 89.15 435.12 88.99 434.82 88.86C434.52 88.73 434.2 88.64 433.88 88.58C433.56 88.51 433.23 88.49 432.9 88.5C432.57 88.5 432.25 88.53 431.93 88.59C431.61 88.65 431.29 88.75 430.99 88.88C430.69 89.01 430.4 89.17 430.14 89.36C429.87 89.54 429.62 89.76 429.4 90C429.15 90.34 428.93 90.71 428.74 91.09C428.56 91.47 428.4 91.87 428.28 92.28C428.16 92.69 428.08 93.1 428.03 93.53C427.98 93.95 427.97 94.38 428 94.8Z" />
		<path id="Layer" class="shp1" d="M444.8 103.1L444.8 99.9L448 99.9L448 103.1L444.8 103.1Z" />
	</g>
</svg>